<svg xmlns="http://www.w3.org/2000/svg" enable-background="new 0 0 1600 1200" viewBox="0 0 1600 1200"><path fill="#efd5ca" d="M575.9,159.7c-0.4,7.1-1.1,18.1-3.1,31.5c-3.1,20.4-5.6,23.8-8.4,44.1c-2.5,17.9-1.3,20.7-4.2,33.6
		c-3.7,16.5-12.4,25.5-9.4,28.3c2.7,2.6,9.7-4.4,22-5.2c11.2-0.8,19.6,4,24.1,6.3c18.4,9.1,28.4,3.3,99.7,8.4
		c31.8,2.3,41,4.2,50.4-3.1c7.6-6,10-14,14.7-35.7c11.7-54.4,17.4-81.9,7.3-94.5c-6.7-8.4-16-10.9-34.6-15.7
		c-27.3-7.2-47.6-5.1-91.3-2.1C629.2,156.4,605.9,158,575.9,159.7z"/><path fill="#ff4f03" stroke="#ff4f03" stroke-miterlimit="10" d="M361.1 983.2c.1.2-.8.8-2.5 1.8-.4.2-.9.5-1.4.8-.5.3-1.1.5-1.8.8-1.3.5-2.8 1.2-4.5 1.6-.8.2-1.7.5-2.7.8-.9.3-1.9.4-2.9.6-2 .5-4.2.7-6.6 1-4.7.4-9.8.3-15.2-.4-5.3-.8-10.3-2.3-14.7-4-2.1-.9-4.2-1.8-6-2.8-.9-.5-1.8-.9-2.6-1.5-.8-.5-1.6-1-2.3-1.5-1.5-.9-2.7-2-3.8-2.8-.5-.4-1.1-.8-1.5-1.2-.4-.4-.8-.8-1.2-1.2-1.4-1.4-2.1-2.2-1.9-2.4.2-.2 1.1.4 2.7 1.4.4.3.8.6 1.3.9.5.3 1 .6 1.6 1 1.2.7 2.4 1.6 3.9 2.3.7.4 1.5.8 2.3 1.3.8.4 1.7.8 2.6 1.2 1.8.9 3.8 1.6 5.9 2.4 4.2 1.5 9 2.8 14.1 3.5 5.1.7 10 .9 14.5.7 2.2-.2 4.4-.3 6.3-.6 1-.2 1.9-.2 2.9-.4.9-.2 1.8-.4 2.6-.5 1.7-.3 3.1-.8 4.5-1.1.7-.2 1.3-.3 1.8-.5.6-.2 1.1-.3 1.5-.5C359.9 983.2 361 982.9 361.1 983.2zM372.9 968.1c.1.2-1 .8-2.9 1.6-.5.2-1 .4-1.6.7-.6.2-1.3.4-2 .7-1.5.5-3.1 1.1-5 1.5-.9.2-1.9.5-2.9.7-1 .2-2.1.4-3.2.6-2.2.5-4.6.7-7.2 1-5.1.5-10.7.6-16.6.2-5.9-.5-11.4-1.5-16.4-2.8-2.5-.7-4.8-1.4-6.9-2.2-1.1-.4-2.1-.7-3.1-1.1-1-.4-1.9-.8-2.8-1.2-1.8-.7-3.3-1.6-4.7-2.3-.7-.4-1.3-.7-1.9-1-.6-.3-1.1-.7-1.5-1-1.8-1.2-2.7-1.9-2.6-2.1.3-.5 4.5 1.7 11.5 4.2.9.3 1.8.6 2.8 1 1 .3 2 .6 3.1.9 2.1.7 4.4 1.2 6.8 1.8 4.8 1.1 10.2 2 15.9 2.5 5.7.4 11.1.4 16.1.1 2.5-.2 4.8-.4 7-.7 1.1-.2 2.2-.3 3.2-.4 1-.2 2-.4 2.9-.5C368.2 969.1 372.7 967.6 372.9 968.1zM506.2 992.3c.1.4-3.8 2-10.4 4-6.6 1.9-15.9 4.4-26.5 4.9-5.3.3-10.4-.1-15-.9-1.1-.2-2.2-.5-3.3-.7-1.1-.3-2.1-.6-3.1-.9-2-.6-3.8-1.3-5.4-2.1-3.2-1.5-5.5-3.2-6.9-4.6-1.4-1.4-2-2.3-1.8-2.5.3-.4 3.4 2.6 9.7 4.9 1.6.6 3.3 1.1 5.2 1.6 1 .2 1.9.4 3 .7 1 .2 2.1.4 3.2.5 4.4.6 9.2.9 14.4.6 10.2-.5 19.4-2.6 26.1-3.9C501.9 992.7 506.1 991.9 506.2 992.3zM504.3 976.7c.2.4-3.2 2.4-9.1 4.8-5.9 2.3-14.4 4.8-24.1 5.9-4.8.6-9.5.8-13.7.7-1.1 0-2.1-.1-3.1-.1-1-.1-2-.1-2.9-.2-1.9-.1-3.6-.4-5.2-.7-3.2-.7-5.7-2-7.1-3.3-1.4-1.3-1.7-2.3-1.6-2.4.2-.2.9.5 2.3 1.4 1.4.8 3.7 1.7 6.7 2 1.5.2 3.2.3 5 .3.9 0 1.9 0 2.8 0 1 0 2 0 3 0 4.1-.1 8.6-.4 13.3-.9 9.4-1.1 17.8-3.1 23.8-4.8C500.4 977.6 504.1 976.3 504.3 976.7z"/><path fill="#edc2ab" d="M307.4 1001.9c-3.2 15.3-4.9 27.8-5.9 36.5-2.1 18.6-2.5 33.4-9.6 53.7-1 2.7-1.8 5-2.4 6.4 2 .1 5 .6 8.2 2.2 6.6 3.4 9.3 9.3 10.1 11.2.3-1.3 1.5-5.3 5.2-8.2 5.5-4.2 11.9-2.8 12.7-2.6-.3.1-1.5.6-2.6 0-1.4-.7-2-2.8-1.1-4.9 1.7-9.8 3.5-17.8 4.9-23.6 3.7-15.3 7.6-27.1 12.7-42.7 3-9.1 5.6-16.5 7.5-21.7-6 .7-14.7 1.1-24.7-1.1C316.5 1005.6 311.4 1003.7 307.4 1001.9zM453.3 1013.3c.4 11.2.4 20.6.4 27.4-.4 34.7-3.7 50.3-6 59.2-.5 1.8-.9 3.2-1.1 4.1 3.6-2.2 6.2-2.2 7.9-1.9 4.1.8 4.7 4.4 10.5 7.1 2.5 1.2 5.6 2.7 8.2 1.5 2.9-1.4 2.4-4.8 5.6-7.9 2.5-2.4 5.6-3.1 7.9-3.4.6-5.1 1.4-12.8 1.9-22.1.6-12.8.2-19.4.4-28.5.2-8.7 1-21.1 3.7-36.4-4 1.7-10.5 3.8-18.7 4.1C464.8 1017 457.5 1014.9 453.3 1013.3zM285.4 543.3c-4.3 6.8-8.9 15.5-12.7 25.8-2.6 7.1-4.5 13.8-5.7 19.7 6.5 7.4 13.6 15 21.3 22.6 22.6 22.1 45.4 38.9 66.1 51.7-.4 2.1-.9 5.2-1.2 9-.4 5.6-.7 8.6.4 11.9 1.3 3.9 3.7 6.1 7.4 9.4 3.4 3.1 9.4 8.4 18.5 9.4 2.9.3 5.5 1.1 6.2 0 1.2-2.1-6.1-8.6-12.7-13.9 2.5 2.1 7.9 6 15.6 7 7 .9 12.3-1.1 18.1-3.3 4.6-1.8 7-2.7 8.2-4.9 2.3-4.1-2-8.7-5.3-16.4-6.9-16-.4-22.3-7.4-30.4-4.5-5.2-13.1-9.4-20.5-6.6-5.4 2.1-8.1 7.1-9 9-10.4-6.4-16.9-13.1-20.9-18.1-9.2-11.3-10.7-19.7-22.2-35.7-4.7-6.6-9.1-11.6-11.9-14.8 2.3-1.9 5.5-5 8.2-9.4 2.5-4.1 5.7-9.2 4.9-14.4-1.5-10.2-18.2-18.9-32-15.6C292.1 537.1 287.7 541 285.4 543.3zM440.5 439.5c3 1.9 7.5-2.3 8.5-1.1 1.6 1.9-6 16.9-19.1 19.1-11.5 1.9-20.6-7.1-24.5-11-5.9-5.9-8.7-12.2-10-16 2-2.7 4.9-7.5 6.5-14 0 0 2-8.5 0-18-3.9-18.3-26.6-18.2-38.5-36-12.4-18.6-8.7-49.4 6.5-65 2.5-2.6 5.1-4.5 39-15 40.2-12.5 49.2-15 59-10 9.2 4.7 14.6 13.6 16.3 16.4 3.6 5.9 5.7 12.2 7.4 25 2.8 21.1 4.2 32 .6 46.6-2.6 10.6-7.2 28.7-23.9 39.8-10.9 7.2-22.2 8.4-28.4 8.5-.1 2.5-.3 6.7-.6 11.9C438.7 433.5 438.1 437.9 440.5 439.5zM560.5 494c3.2-.2 6.3-.3 9.5-.5-2.3-2.2-6.3-6.6-6.5-12.5-.2-5 2.3-8.7 3.5-10.5 12.7-19.3 19-29.1 22.5-37.5 5-12.1 1.7-14 7.5-24 7.9-13.5 17.6-16.4 20-17 3.3-.9 8.5-1.5 9.5.5 1.6 3-8 8.5-6.5 13.5 1.3 4.4 10.3 5.3 12.5 5.5 6.9.7 12.3-1.5 13.5-2 9.4-4 13.4-11.9 16-10.5 1 .5.5 1.8 2.5 6.5 1.1 2.5 1.3 2.3 2.5 5 1.5 3.4 2.2 6 2.5 7.5.6 2.8.9 4.2.5 5.5-.9 2.7-3.7 3.8-6 5-9.2 4.7-8.2 9.8-16 13-1.3.6-6.3 2.5-12 1.5-11.3-2.1-14.9-14.1-19-13-3.9 1-2.2 12.7-4 29-2.3 20.5-8.8 36.5-15 51.5-5.6 13.6-6.2 16.1-8.5 18.5-13 13.5-38.1 12.3-39.5 8-.3-.9.6-1.4 3-6 0 0 1.7-3.2 4-9C560.5 513.3 560.5 496.8 560.5 494z"/><path fill="#a59379" d="M293,524.1c2.4-5.6,5.9-13.2,10.9-21.8c13.1-22.5,27.2-35.7,30.2-38.5c6.6-6.1,19.4-16.9,36.6-21.8
		c4.9-1.4,11-2.3,16,0.6c3.8,2.2,5,5.5,7.2,9.2c4.9,8.1,13.5,15.7,21.7,18.4c10.8,3.6,25.8,0.4,34.6-10.3c7.3-8.8,7.2-19.2,7.1-22.5
		c20.1,1.3,32,7.7,39.1,13.5c7,5.6,8.1,9.5,16.7,14.1c8,4.3,14,4.7,25,10.9c3.9,2.2,7,4.3,9,5.8c0.1,6.4-0.4,15.9-3.7,26.7
		c-3.6,11.6-9,20.2-13,25.5c-6.6-2-14-5-21.6-9.5c-1.7-1-3.2-2-4.8-3c-1.7,0.6-3.5,1.2-5.2,1.7c2.9,20.5,4.7,46.4,2.7,76.1
		c-1.9,28.2-6.9,52.5-12.2,71.9c0.5,0.6,3.6,4.7,2.6,10.3c-0.8,4-3.6,6.6-5.8,8.3c-9.1,7.5-16.2,13.5-25,16.7
		c-16.3,6-40.8,3.6-64.7-9.5c8-0.1,14.4-3.5,16.4-8.6c1.3-3.4,0.3-6.6-0.5-9.5c-2.6-8.7-9.4-13.7-13.5-16.7c-2.5-1.9-5.9-4-10.3-5.8
		c0.9-0.4,7.2-3.1,9-9.6c0.3-1,1.7-6.9-1.3-9.6c-3.7-3.4-11.5,0-16,1.9c-3.3,1.4-5.8,3-7.6,4.3c-3.2-2-6.3-4-9.5-6.1
		c1.5-6.6,3.1-15.4,3.6-25.8c0.4-6.6,0.7-14.1-0.6-23.9c-2-14.5-3.7-27.1-10.9-34.5c-2.1-2.1-6.6-5.9-7.1-11.5
		c-0.2-2.4,0.4-4.6-0.6-5.1c-1.6-0.8-5.1,3.3-6.4,4.5C336.9,544.5,325.4,544,293,524.1z"/><path fill="#353431" d="M384.3,364.9c4,8.6,7.9,15.1,10.7,19.4c3.8,5.8,6.6,9.2,8,15.4c0.2,0.9,2.6,11.7-1.3,14
		c-3.9,2.3-12.3-12.1-16.7-10c-2.4,1.1-1.2,5.9-3.3,6.7c-0.9,0.4-4.5,0.7-17.4-19.4c-10.6-16.5-14.2-26.1-17.4-25.4
		c-3.4,0.7-2.7,12-4,12c-2.1,0.1-9.9-28-3.3-59.5c2.4-11.4,6.9-31.7,24.1-46.8c3.1-2.7,6-4.7,8-6c0.7,0.9,1.5,1.8,2.2,2.7
		c1.8-1.2,3.7-2.4,5.5-3.7c2.3-2,5.6-4.5,9.7-7.1c14.8-9.2,28.6-11.5,32.8-12c19.8-2.5,35.5,2.6,42.1,5.4
		c23.8,9.7,35.9,27.8,39.9,34.4c-5.8-3.8-11.5-7.5-17.3-11.3c5.8,9.2,11.5,18.4,17.3,27.6c-5.3-4.5-10.5-9-15.8-13.4
		c0.4,2.8,0.8,5.6,1.3,8.4c-17.5,4.1-29.4,1.8-37.4-1.5c-5.2-2.2-12-6.1-12.7-5.1c-1,1.4,13.4,9.8,11.7,15.2
		c-1.3,4.2-11.7,5.1-18.8,3.9c-5.7-0.9-9.9-3.3-12.3-5c-0.4,2.3-1.3,5.8-3.4,9.6c-1.1,1.9-7.3,13.3-17.5,14.1
		c-5.1,0.4-9.9-1.8-11.9-2.8c-4.3-2-5.4-3.9-9.4-4.7c-1-0.2-5.9-1.2-9.4,1.3c-3.7,2.7-3.8,7.8-4,14c-0.3,10.2,2.9,17.5,4.7,21.4
		c2.4,5.3,4.2,9.2,8,10C379.9,367.6,382.8,366,384.3,364.9z"/><path fill="#ff4f03" d="M282.5 544c-2.6-4 2.6-14 10.3-17.1 1.1-.4 2.9-1 9.7-.6 10 .7 18.7 1.2 27.9 6.8 2.5 1.5 6 4 9.7 8-3.8 6.5-7.6 12.9-11.4 19.4-4.3-5.8-10.8-12.2-20-14.8C295.6 541.9 285.4 548.4 282.5 544zM391.5 445.9c3-2.1 6.1-4.2 9.1-6.3 1.9 3.3 5.9 9.3 13.1 13.7 4 2.4 13.3 8.1 21.7 4.6 4.6-2 10.1-7.3 12-13.7.7-2.4.8-5 2.9-6.3 2-1.2 4.8-.3 6.8.6.4 2.5 1.5 10.7-3.4 18.1-4.2 6.4-10.5 8.5-16 10.4-6.5 2.2-20.6 6.9-33.1-1.1C395.7 460.1 392.6 450.4 391.5 445.9zM547.3 484c-.5 6.5-1.6 14.2-3.8 22.8-2.2 8.4-4.9 15.7-7.6 21.5 5.2.7 10.4 1.4 15.6 2.1 2.5-4.7 5.9-12.3 7.2-22.4 1.2-9 .2-16.6-.8-21.5C554.4 485.7 550.8 484.9 547.3 484z"/><path fill="#d6ae92" d="M649.7,180.9c-8.2,9.6-7.9,24.5-7.4,24.6c0.2,0,1.3-2.6,0.5-3.4c-1.5-1.5-9.7,1.9-13.8,8.4
		c-2.3,3.7-1.5,5.7-3.9,7.4c-2.8,1.9-5.4,0.3-11.3,0.5c-3.5,0.1-8.8,0.2-12.3,2.9c-3.2,2.5-3.2,6-4.4,22.6
		c-1.1,15.4-1.6,18.2,0.5,19.7c4.4,3.1,11.9-5.2,20.6-1.5c0.6,0.2,2.5,1.3,6.4,3.4c4.4,2.4,7.5,4.2,7.9,4.4
		c5.6,3.2,22.4,12.8,36.9,7.4c4.8-1.8,7.6-4.6,11.3-8.4c7.7-7.8,10.6-16.2,14.3-27.3c4-12.1,6-18.1,3.9-21.3
		c-5.4-8.4-23.5-0.3-32.9-10.4c-4.1-4.4-4.8-10.4-4.9-14.3c0.1-3.5,0.3-17.9-4.4-19.2C654,175.8,651.1,179.2,649.7,180.9z"/><path stroke="#000" stroke-miterlimit="10" d="M427.6 404.5c.1-.1.7.2 1.7.7.3.1.6.3.9.5.3.1.7.3 1.1.5.8.4 1.7.8 2.8 1.1 2.1.8 4.8 1.5 8 1.9 3.2.4 6.9.5 10.9-.1 8-1.1 17.3-4.7 24.9-12.3 7.7-7.4 13.7-18 16.8-29.9 3.1-12 3.3-24.1 2.5-34.9-.4-5.4-1-10.6-1.6-15.4-.7-4.8-1.4-9.3-2.2-13.3-1.7-8-4-14.3-6.1-18.3-2.1-4.1-3.6-6.1-3.4-6.3.1-.1 2 1.7 4.5 5.7 2.5 4 5.3 10.3 7.2 18.4 1 4.1 1.9 8.6 2.6 13.4.8 4.8 1.5 10 2 15.5.9 11 .9 23.4-2.4 35.9-3.3 12.5-9.6 23.6-17.9 31.3-2 2-4.3 3.6-6.4 5.1-1.2.7-2.2 1.5-3.4 2-.6.3-1.1.6-1.7.9-.6.3-1.2.5-1.7.8-4.6 2-9.2 3.1-13.4 3.5-4.2.4-8.1.2-11.4-.4-3.3-.6-6.1-1.5-8.2-2.5-1.1-.4-2-1-2.8-1.4-.4-.2-.7-.4-1.1-.6-.3-.2-.6-.4-.8-.6C428 405 427.5 404.6 427.6 404.5zM444.7 437.7c-.4.1-1.1-1.2-1.6-3.3-.5-2.2-.7-5.3-.2-8.7.5-3.4 1.6-6.3 2.7-8.3 1.1-2 2.1-2.9 2.5-2.7.8.5-1.1 5.3-2 11.5C445.1 432.3 445.6 437.5 444.7 437.7zM392.6 432.9c-.3-.4 1.6-1.9 3.6-5 2.1-3 4.1-7.7 4.8-13.3.7-5.6.3-10.8 0-14.6-.3-3.8-.4-6.2 0-6.3.4-.1 1.3 2.2 2.2 5.9.9 3.8 1.7 9.2 1 15.3-.8 6.1-3.5 11.3-6.3 14.3C395.3 432.4 392.8 433.3 392.6 432.9zM390.4 338.9c-.3 0-.4-1.3-1-3.4-.6-2.1-1.9-5.2-4.5-8.1-1.3-1.4-2.9-2.8-4.9-3.9-2-1.1-4.3-1.8-6.7-1.7-2.3.1-4.5 1.3-5.9 3.4-1.4 2.1-2 5-2.2 7.9-.1 1.5 0 3 .1 4.4.2 1.5.4 3 .6 4.4.5 2.9 1.1 5.6 1.9 8.2.7 2.6 1.6 5 2.5 7.2.9 2.2 1.9 4 3.2 5.4 2.5 2.9 5.8 3.3 7.8 2.8 2.1-.5 2.8-1.7 3-1.5.1.1 0 .4-.4.9-.4.5-1.1 1.3-2.3 1.8-1.2.5-2.7.8-4.5.5-.9-.1-1.8-.4-2.8-.9-.9-.5-1.8-1.1-2.6-1.9-1.6-1.6-2.9-3.7-4-5.9-1.1-2.3-2-4.7-2.9-7.4-.9-2.7-1.6-5.5-2.1-8.5-.3-1.5-.5-3-.7-4.6-.2-1.6-.2-3.2-.2-4.9.2-3.3.9-6.7 2.8-9.5.9-1.4 2.2-2.6 3.7-3.4 1.5-.8 3.1-1.2 4.7-1.2 3.1-.1 5.9 1 8.1 2.3 2.3 1.3 4 3 5.4 4.7 2.7 3.5 3.7 6.9 4 9.3C390.9 337.6 390.6 338.9 390.4 338.9z"/><path stroke="#000" stroke-miterlimit="10" d="M382.8,350.5c-0.5-0.1-0.5-1.6-0.9-3.8c-0.4-2.2-1.2-5.3-2.9-8.2c-0.8-1.5-1.8-2.7-2.8-3.8
					c-0.5-0.5-1-1.1-1.4-1.4c-0.4-0.4-0.8-0.6-1.2-0.7c-0.1,0-0.2,0-0.2-0.1l-0.2,0c0.1,0,0,0,0,0c-0.1,0-0.2,0-0.4,0.1
					c-0.3,0.1-0.5,0.3-0.6,0.5c-0.1,0.2-0.2,0.3-0.3,0.5c0,0.2,0,0.3-0.1,0.4c-0.1,0-0.2,0.1-0.4-0.1c-0.2-0.2-0.4-0.5-0.4-1
					c0-0.5,0.2-1.1,0.7-1.6c0.2-0.3,0.5-0.5,1-0.7c0.1,0,0.2-0.1,0.4-0.1l0.2-0.1c0.3,0,0.5,0,0.7,0c0.9,0,1.7,0.4,2.4,0.8
					c0.7,0.4,1.3,0.9,2,1.5c1.3,1.1,2.5,2.6,3.5,4.3c2,3.5,2.6,7.2,2.4,9.7C384,349.2,383.2,350.6,382.8,350.5z"/><path stroke="#000" stroke-miterlimit="10" d="M380 356.6c0 .2-.3.4-.8.5-.5.1-1.3-.1-2.1-.5-.8-.4-1.7-1.1-2.4-2.2-.7-1.1-1.2-2.5-1-4.1.2-1.6.9-2.9 1.8-3.8.9-.9 1.9-1.5 2.8-1.7.9-.2 1.7-.2 2.2-.1.5.2.7.4.7.6 0 .5-.9.8-1.9 1.6-1 .7-2.1 2.1-2.3 3.7-.1 1.6.7 3.2 1.5 4.1C379.2 355.7 380.1 356.1 380 356.6zM446.9 335.1c-.5-.1-.2-2-1.8-4-.7-1-1.9-2-3.4-2.7-.8-.4-1.6-.6-2.5-.8-.9-.2-1.8-.2-2.7-.1-3.9.5-7.2 2.7-9.6 4.3-2.4 1.6-4 2.6-4.3 2.2-.3-.3.7-1.9 2.8-4 1.1-1.1 2.4-2.3 4.2-3.4 1.8-1.1 4-2 6.5-2.3 1.3-.1 2.6 0 3.8.2 1.2.3 2.3.8 3.2 1.3 1.9 1.1 3.3 2.7 4 4.2.7 1.6.8 3 .5 3.9C447.5 334.7 447.1 335.1 446.9 335.1zM491.2 337c-.5 0-.6-1.4-1.9-2.7-.6-.6-1.6-1.3-2.7-1.7-1.1-.4-2.5-.6-3.8-.4-2.8.4-5.3 2.1-7 3.2-1.8 1.2-3 1.9-3.4 1.6-.3-.3.3-1.6 1.8-3.3.8-.9 1.8-1.8 3.1-2.7 1.3-.9 3-1.7 5-2 2.1-.3 4 .2 5.5.9 1.5.8 2.7 1.9 3.3 3.1.6 1.2.8 2.3.7 3C491.7 336.7 491.4 337 491.2 337zM458.7 357.2c-.4-.3.9-2.7 2.6-6.7.2-.5.4-1 .6-1.6.2-.5.4-1.1.6-1.7.5-1.2.8-2.5 1.2-3.9.7-2.8 1.4-5.8 1.8-9.1.4-3.3.5-6.4.4-9.2-.1-1.4-.1-2.8-.3-4-.1-.6-.1-1.2-.2-1.8-.1-.6-.2-1.1-.3-1.7-.7-4.3-1.4-7-.9-7.1.4-.2 1.9 2.3 3.2 6.6.2.5.3 1.1.5 1.7.2.6.3 1.2.4 1.9.3 1.3.4 2.7.6 4.2.3 3 .3 6.4-.1 9.8-.4 3.5-1.2 6.7-2.2 9.6-.5 1.4-1 2.8-1.6 4-.3.6-.5 1.2-.8 1.8-.3.5-.6 1.1-.9 1.6C461.1 355.4 459 357.4 458.7 357.2zM420.5 302.5c.4.2-.2 3.2-1.9 7.8-.9 2.3-2.1 5.1-4 7.9-1.8 2.8-4.4 5.7-7.8 7.9-3.4 2.2-7.3 3.3-10.9 3-3.6-.3-6.6-1.8-8.6-3.5-2-1.8-3.1-3.7-3.5-5.1-.2-.7-.3-1.3-.3-1.7 0-.4.1-.6.2-.6.3-.1.6.7 1.2 1.8.7 1.1 1.9 2.6 3.7 3.8 1.9 1.2 4.5 2.3 7.4 2.3 2.9.1 6.1-.9 9-2.8 2.9-1.9 5.3-4.3 7.1-6.9 1.8-2.5 3.2-5 4.3-7.2C418.7 305 420.1 302.3 420.5 302.5z"/><path stroke="#000" stroke-miterlimit="10" d="M406.1,416c-0.1,0.2-2.5-0.6-6.7-2.5c-2.1-1-4.7-2.3-7.5-4c-2.7-1.6-6.7-4.4-7.7-5.2c0,0.7,0,1.4,0,2.1
					c0,1,0,1.9,0,2.9c0,0.6,0,1.1,0,1.7l0,0.4c0,0.1,0,0.2,0,0.2l-0.2-0.1l-0.8-0.3c-0.5-0.2-1.1-0.4-1.6-0.6
					c-0.5-0.2-1-0.4-1.5-0.6l-0.8-0.3l-0.6-0.3c-0.4-0.2-0.7-0.4-1.1-0.6c-1.4-0.8-2.9-1.8-4.2-2.8c-5.5-4.3-9.9-10.5-13.7-17.3
					c-2-3.4-3.8-6.9-6-10.3c-1.1-1.7-2.2-3.4-3.4-5.1c-0.6-0.8-1.2-1.7-1.9-2.4c-0.2-0.2-0.4-0.4-0.6-0.6l-0.1-0.1l0,0l0,0.1l0,0.1
					l-0.1,0.4c-0.1,0.6-0.3,1.2-0.4,1.8c-0.8,3.6-1.6,7.1-2.4,10.8c-0.2,1-0.4,1.9-0.6,2.9c0,0.4-0.1,0-0.2-0.2l-0.2-0.7l-0.5-1.4
					c-0.6-1.9-1.3-3.7-1.9-5.6c-0.3-0.9-0.6-1.9-1-2.8l-0.5-1.4c-0.2-0.5-0.2-0.7-0.3-1c-0.3-1.1-0.6-2.2-0.9-3.4
					c-2-8-3.2-16.1-3.2-23.9c-0.1-1.9,0-3.9,0.1-5.8c0.1-1.9,0.1-3.8,0.3-5.7c0.2-1.9,0.4-3.7,0.6-5.5c0.3-1.8,0.6-3.6,0.9-5.4
					c0.2-0.9,0.3-1.8,0.5-2.6c0.2-0.9,0.4-1.7,0.6-2.6c0.4-1.7,0.8-3.4,1.2-5c0.5-1.6,1-3.2,1.5-4.8c0.3-0.8,0.5-1.6,0.8-2.3
					c0.3-0.8,0.6-1.5,0.9-2.2c0.6-1.5,1.2-2.9,1.7-4.4c0.6-1.4,1.3-2.7,1.9-4.1c0.3-0.7,0.6-1.3,0.9-2c0.3-0.7,0.6-1.3,1-1.9
					c0.7-1.2,1.4-2.4,2.1-3.6c5.5-9.4,11.3-15.9,15.6-20.2c1.2-1.1,2.5-1.7,3.7-2c1.2-0.3,2.2-0.4,3.1-0.1c0.9,0.3,1.3,0.9,1.4,1.3
					c0.1,0.4,0.1,0.6,0.1,0.6c-0.1,0-0.1-0.2-0.4-0.5c-0.2-0.3-0.6-0.7-1.3-0.8c-1.4-0.2-3.7,0.5-5.7,2.5
					c-3.8,4.5-9.4,11.1-14.5,20.4c-0.6,1.2-1.3,2.4-1.9,3.6c-0.3,0.6-0.6,1.2-0.9,1.9c-0.3,0.6-0.6,1.3-0.9,2
					c-0.6,1.3-1.2,2.6-1.8,4c-0.5,1.4-1.1,2.8-1.6,4.3c-0.3,0.7-0.5,1.5-0.8,2.2c-0.3,0.7-0.5,1.5-0.7,2.3c-0.5,1.5-0.9,3.1-1.4,4.7
					c-0.4,1.6-0.8,3.2-1.1,4.9c-0.2,0.8-0.4,1.7-0.6,2.5c-0.2,0.8-0.3,1.7-0.4,2.6c-0.3,1.7-0.6,3.5-0.8,5.2
					c-0.2,1.8-0.3,3.6-0.5,5.4c-0.2,1.8-0.2,3.7-0.3,5.5c0,1.9-0.2,3.7,0,5.6c0.1,7.6,1.2,15.4,3.2,23.2c0.3,1.1,0.6,2.2,0.8,3.3
					l0.2,0.6l0.1,0.2l0.1,0.4l0.3,0.8l0.1,0.2l0,0.1c0,0,0,0.1,0,0l0.1-0.4c0.2-0.7,0.3-1.4,0.5-2.2c0.3-1.5,0.7-3.1,1-4.6
					c0.2-0.9,0.4-1.8,0.7-2.6l0.2-0.7l0.1-0.3l0.2,0.2l1,1c0.6,0.7,1.3,1.3,1.9,2c0.6,0.7,1.2,1.3,1.8,2c0.7,0.9,1.4,1.7,2,2.6
					c1.3,1.7,2.4,3.5,3.5,5.3c2.1,3.6,4,7.1,5.9,10.5c3.7,6.7,7.8,12.7,12.8,16.8c1.2,1,2.5,1.9,3.8,2.7c0.3,0.2,0.7,0.4,1,0.5
					l0.5,0.3l0.3,0.1l0.6,0.3l0.5,0.2l0.2,0.1l0.1,0c0,0,0,0,0-0.1l0-0.1l0-0.5c0-0.5,0-1,0-1.4c0-2.2,0.1-4.3,0.1-6.2
					c5.6,4.6,7.7,6.1,10.6,8c2.7,1.8,5.2,3.3,7.2,4.4C403.9,414.8,406.2,415.8,406.1,416z"/><path stroke="#000" stroke-miterlimit="10" d="M501.2,311.6c-0.2,0.1-1.6-2-4-5.8c-0.6-1-1.3-2-2-3.2c-0.8-1.3-1.7-2.7-2.6-4.3c-2.5-4.1-5.4-8.9-8.6-14.2
					c3.7,3,7.6,6.3,11.8,9.7c1,0.8,1.9,1.6,2.9,2.4c0.3,0.3,0.7,0.5,1,0.8c0.6,0.5,1.2,1,1.8,1.5c-0.5-1-0.9-2-1.4-3
					c-1.5-3.4-3.1-6.9-4.7-10.5c5.3,2.1,10.8,4.3,16.4,6.6c0.3,0.1,0.7,0.3,1,0.4l0.5,0.2l0.1,0l0,0l0,0l-0.1-0.1l-0.2-0.3
					c-0.2-0.4-0.4-0.7-0.7-1.1l-0.2-0.3l-0.1-0.1L512,290c-0.4-0.5-0.7-1.1-1.1-1.6c-0.7-1.1-1.5-2.1-2.2-3.2
					c-0.8-1.1-1.6-2.1-2.4-3.2c-0.8-1-1.6-2.1-2.5-3.2c-0.9-1-1.8-2-2.7-3.1c-0.9-1.1-1.8-2-2.8-3c-1-1-1.9-2-2.9-3
					c-1-0.9-2-1.9-3.1-2.8l-1.5-1.4l-1.6-1.3c-1-0.8-1.9-1.6-2.9-2.4c-1-0.8-2-1.5-3-2.2c-2-1.5-4.1-2.8-6.1-4.1
					c-1-0.7-2.1-1.2-3.1-1.8c-1.1-0.6-2.1-1.2-3.1-1.7c-1.1-0.5-2.1-1-3.2-1.5c-1.1-0.5-2.1-1-3.2-1.4c-8.6-3.5-17.5-5.4-25.8-5.5
					c-4.2,0-8.3,0.3-12.2,0.9c-3.9,0.6-7.6,1.4-11.1,2.3c-3.5,0.9-6.8,2-9.9,3.1c-1.6,0.6-3,1.1-4.5,1.7c-0.7,0.3-1.4,0.6-2.1,0.9
					c-0.3,0.2-0.7,0.3-1,0.5l-0.5,0.2l-0.2,0.1l-0.1,0l0,0l0,0l0,0c0.1,0.1,0,0-0.6-0.8l0.5,0.9c-7.8,3.9-13.4,8.1-17.2,11.1
					c-3.7,3-5.7,4.8-5.8,4.7c-0.1-0.1,1.5-2.2,5.1-5.5c3.6-3.3,9.1-7.8,17-12.1l-0.1,0.1l0.4-0.2l0.3-0.1l0.5-0.3
					c0.3-0.2,0.7-0.3,1-0.5c0.7-0.3,1.4-0.7,2.1-1c1.4-0.7,3-1.3,4.5-1.9c3.1-1.2,6.5-2.4,10.1-3.4c3.6-1,7.4-1.9,11.4-2.6
					c4-0.6,8.2-1,12.6-1.1c8.8,0,18,1.9,27,5.5c1.1,0.4,2.2,0.9,3.3,1.4c1.1,0.5,2.2,1,3.3,1.5c1.1,0.6,2.2,1.2,3.3,1.8
					c1.1,0.6,2.2,1.2,3.2,1.9c2.1,1.3,4.3,2.7,6.3,4.2c1,0.8,2.1,1.5,3.1,2.3c1,0.8,2,1.6,3,2.5l1.7,1.4l1.6,1.5
					c1.1,1,2.1,2,3.1,2.9c1,1,2,2,3,3.1c1,1,2,2,2.8,3.1c0.9,1.1,1.8,2.1,2.7,3.2c0.9,1,1.7,2.2,2.5,3.2c0.8,1.1,1.7,2.2,2.5,3.3
					c0.8,1.1,1.5,2.2,2.3,3.3c0.4,0.6,0.7,1.1,1.1,1.6l0.3,0.4l0.4,0.7l0.9,1.4c1.1,1.9,2.3,3.7,3.4,5.6l0.8,1.4l0.4,0.7l0.1,0.2
					l-0.2-0.1l-0.4-0.2c-1-0.4-2-0.8-3.1-1.2c-2-0.8-4-1.6-6-2.4c-2.4-1-4.8-2-7.1-2.9c-0.7-0.3-1.5-0.6-2.2-0.9
					c-0.4-0.2-0.7-0.3-1.1-0.5c0.2,0.4,0.4,0.9,0.6,1.3c0.6,1.3,1.2,2.7,1.7,4c1.8,4.1,3.5,8.1,5.2,12c-2.6-2.2-5.1-4.4-7.5-6.4
					c-1.2-1-2.4-2-3.5-3c-0.5-0.4-1-0.8-1.4-1.2c-1.5-1.4-3-2.6-4.3-3.8c1,1.9,2,3.6,2.8,5.2c1.5,2.7,2.8,5.1,3.8,6.9
					C500.3,309.3,501.4,311.5,501.2,311.6z"/><path stroke="#000" stroke-miterlimit="10" d="M488.1 296.8c.1.3-4.7 2.3-13 2.9-2.1.2-4.4.2-6.8.2-2.5-.1-5.1-.3-7.9-.7-5.5-.8-11.5-2.5-17.5-5.2l1.8-2.6c.9.8 1.7 1.7 2.6 2.5 1.2 1.2 2.4 2.4 3.6 3.5.6.6 1.2 1.2 1.7 1.7.3.3.6.6 1 1.1.4.5.7 1.2.8 1.9.1.7-.1 1.4-.4 2-.2.3-.4.6-.6.8-.2.2-.4.4-.6.6-.8.7-1.5 1-2.2 1.5-.7.4-1.4.8-2.2 1.1-.7.4-1.5.6-2.2.9-3 1-5.9 1.4-8.7 1.3-1.4 0-2.7-.2-3.9-.3-1.2-.2-2.4-.5-3.6-.8-4.5-1.3-7.6-3.5-9.5-5.2-.5-.4-.9-.8-1.2-1.2-.3-.4-.6-.7-.8-1-.4-.5-.6-.9-.5-.9.1-.1.4.1.9.5.3.2.6.4.9.7.4.3.8.6 1.3.9 2 1.3 5.1 3.1 9.3 4 1 .3 2.1.4 3.3.6 1.2.1 2.4.2 3.6.1 2.5-.1 5.1-.5 7.7-1.5.6-.2 1.3-.5 1.9-.8.6-.3 1.3-.6 1.9-1 .6-.4 1.3-.7 1.7-1.1.1-.1.2-.2.3-.3.1-.1.1-.1.1-.1 0-.1.1-.2.1-.3 0-.1-.1-.2-.1-.3-.1-.2-.4-.4-.7-.7-.6-.6-1.2-1.1-1.8-1.7-1.2-1.2-2.4-2.3-3.6-3.5-.9-.9-1.7-1.7-2.6-2.5l-6.6-6.5 8.4 3.9c11.3 5.2 22.7 6.6 30.7 6.5C483.1 297.4 488 296.3 488.1 296.8zM398.8 388.7c-.2.4-1.8-.1-3.9-1.6-1-.7-2.2-1.7-3.4-3-1.1-1.3-2.3-2.7-3.3-4.4-1-1.7-1.7-3.4-2.3-5-.5-1.6-.9-3.1-1-4.4-.3-2.5 0-4.1.4-4.2.9-.1 2 5.8 5.7 11.9C394.7 384.2 399.4 387.9 398.8 388.7zM263.9 578.7c-.2-.1.4-2.8 1.7-7.8 1.3-4.9 3.5-12 6.6-20.6 6.2-17.2 16.5-40.5 31.4-64.2 3.7-5.9 7.5-11.6 11.6-16.9 4.1-5.2 8.5-10 13.2-14 9.3-8.1 19.2-13.3 27.8-16.6 8.7-3.2 16.1-4.6 21.2-5.1 1.3-.1 2.4-.2 3.4-.3 1-.1 1.8 0 2.5-.1 1.4 0 2.1.1 2.1.2s-.7.3-2 .5c-.7.1-1.5.2-2.5.4-1 .2-2.1.4-3.3.6-5 .9-12.2 2.6-20.5 6-8.3 3.5-17.8 8.8-26.7 16.7-8.9 7.8-16.7 18.5-24 30.3-14.7 23.5-25.3 46.4-32 63.3-3.4 8.5-5.9 15.4-7.6 20.2C265.1 576.1 264.1 578.8 263.9 578.7z"/><ellipse cx="379.5" cy="512.5" stroke="#000" stroke-miterlimit="10" rx="9.9" ry="1.6"/><path stroke="#000" stroke-miterlimit="10" d="M320.3 573.5c-.7-.5 7.6-14.7 20-31 12.3-16.3 23.8-28.2 24.4-27.6.7.6-9.6 13.4-21.8 29.6C330.6 560.6 321 574 320.3 573.5zM375.9 646c-.1.2-1.4-.2-3.6-1.3-2.2-1.1-5.2-2.9-8.6-5.6-3.4-2.7-7.1-6.3-10.9-10.6-3.7-4.3-7.4-9.4-11-14.9-3.6-5.5-6.7-10.8-9.7-15.6-3-4.8-5.7-9-8.2-12.5-4.9-6.9-8.4-10.8-8.1-11.2.3-.3 4.5 3.1 9.9 9.8 2.7 3.3 5.7 7.5 8.8 12.2 3.1 4.7 6.4 10 9.9 15.4 3.5 5.4 7.1 10.5 10.5 14.8 3.5 4.3 6.9 8 10 10.8C371.5 643.1 376.2 645.5 375.9 646zM360.2 665.3c-.1.4-6.5-1.6-16.3-6-1.2-.6-2.5-1.1-3.8-1.8-1.3-.6-2.7-1.3-4.1-2-2.8-1.4-5.8-3-8.9-4.8-6.2-3.5-12.8-7.7-19.4-12.5-6.6-4.8-12.7-9.8-18-14.5-2.6-2.4-5.1-4.7-7.3-6.9-1.1-1.1-2.2-2.2-3.2-3.2-1-1.1-2-2.1-2.9-3.1-7.3-7.9-11.1-13.3-10.8-13.6.4-.3 4.9 4.5 12.5 11.9 1 .9 2 1.9 3 2.9 1 1 2.2 2 3.3 3.1 2.3 2.1 4.8 4.3 7.5 6.6 5.4 4.5 11.4 9.3 17.9 14.1 6.6 4.7 13.1 8.9 19.1 12.5 3 1.8 5.9 3.5 8.6 5 1.4.7 2.7 1.5 4 2.2 1.3.7 2.5 1.3 3.7 1.9C354.3 662.2 360.4 664.9 360.2 665.3zM391.4 701.6c.1.2-.7.7-2.2 1.3-1.6.5-3.9 1.1-6.9 1.1-3 0-6.5-.6-10.2-2-3.7-1.4-7.4-3.6-11-6.3-1.7-1.4-3.4-2.9-4.8-4.4-1.4-1.5-2.9-3.1-3.8-5.2-.9-2.1-1-4.1-1-5.8 0-1.7 0-3.2 0-4.7 0-5.7.3-9.2.8-9.3.4 0 1 3.5 1.5 9.2.1 1.4.3 3 .4 4.6.1 1.6.4 3.3 1 4.7.7 1.4 1.9 2.8 3.4 4.2 1.4 1.4 3 2.8 4.6 4.1 3.3 2.6 6.8 4.7 10.1 6.1 3.3 1.5 6.5 2.2 9.2 2.5 2.7.3 4.9.1 6.5 0C390.4 701.5 391.3 701.4 391.4 701.6z"/><path stroke="#000" stroke-miterlimit="10" d="M415.8 686.6c.2.2-.4 1-1.6 2.3-.6.6-1.5 1.3-2.4 2.2-.5.4-1.1.7-1.7 1.2-.3.2-.6.4-.9.6-.3.2-.7.4-1 .6-2.8 1.6-6.5 2.9-10.7 3.5-4.2.6-9 .5-13.8-.8-5-1.3-9.4-3.8-12.7-6.9l2-2.2c9 8.1 14.2 14.9 13.8 15.3-.5.5-6.5-5.4-15.7-13l2-2.2c3.1 2.6 7 4.7 11.6 5.9 4.3 1.2 8.7 1.4 12.6 1 3.9-.4 7.3-1.4 10.1-2.6C412.7 689 415.4 686.2 415.8 686.6zM387.3 657c-.3-.4 2.1-2.2 5.1-5.8 1.4-1.8 3-4.1 4.2-6.8.6-1.3.9-2.7.5-3.4-.2-.4-.5-.7-1.1-.9-.6-.2-1.3-.3-2.1-.4-1.7-.1-3.4 0-5.1.1-1.6.2-3.2.4-4.7.7-3 .6-5.6 1.5-7.8 2.4-4.3 1.8-6.8 3.5-7.1 3.1-.3-.3 1.7-2.7 6.1-5.1 4.3-2.4 11-4.8 18.7-4.4 1 .1 2.1.2 3.2.6 1.1.4 2.2 1.3 2.8 2.5.6 1.2.5 2.5.3 3.5-.2 1-.6 1.9-1 2.7-1.6 3-3.5 5.3-5.3 7C390.5 656.3 387.5 657.4 387.3 657zM413.5 686c-.5.1-1.2-1.9-2.5-4.8-.3-.7-.7-1.5-1.2-2.4-.4-.9-1-1.7-1.5-2.6-1.1-1.8-2.5-3.7-4.1-5.6-1.6-1.8-3.3-3.4-4.9-4.8-.8-.7-1.6-1.3-2.4-1.9-.8-.6-1.5-1.1-2.2-1.5-2.7-1.8-4.6-2.7-4.4-3.2.1-.4 2.3-.2 5.5 1.2.8.3 1.7.7 2.5 1.3.9.5 1.8 1.1 2.8 1.8 1.9 1.4 3.8 3.1 5.5 5.1 1.7 2 3.1 4.2 4.2 6.2.5 1 1 2 1.3 3 .4.9.7 1.9.9 2.7C414 683.8 413.9 685.9 413.5 686z"/><path stroke="#000" stroke-miterlimit="10" d="M412.2,689.1c0.1,0.4-2.3,1.2-6.2,1.5c-1,0.1-2.1,0.1-3.2,0c-1.2,0-2.4-0.1-3.7-0.3
					c-2.6-0.3-5.4-0.9-8.3-1.9c-2.9-1-5.5-2.2-7.7-3.5c-1.1-0.7-2.2-1.3-3.1-2c-1-0.7-1.8-1.3-2.5-2c-3-2.6-4.4-4.6-4.1-4.9
					c0.3-0.4,2.3,1.1,5.4,3c0.8,0.5,1.7,1,2.6,1.5c0.9,0.6,2,1.1,3.1,1.6c2.2,1.1,4.7,2.1,7.4,3c2.7,0.9,5.3,1.5,7.7,2
					c1.2,0.2,2.4,0.4,3.4,0.6c1.1,0.2,2.1,0.3,3,0.3C409.8,688.6,412.1,688.7,412.2,689.1z"/><ellipse cx="395.5" cy="676.4" stroke="#000" stroke-miterlimit="10" rx="18.4" ry="1.6" transform="rotate(31.34 395.442 676.351)"/><path stroke="#000" stroke-miterlimit="10" d="M369.7 584.2c-.9.3-5.3-9.4-11.3-21.1-5.9-11.7-11.2-21-10.4-21.5.7-.5 7.3 8.2 13.3 20.1C367.4 573.5 370.5 583.9 369.7 584.2zM364.1 632.1c-.9-.1 0-11 .2-24.4.3-13.4-.3-24.3.6-24.4.9-.1 2.9 10.8 2.6 24.5C367.4 621.4 365 632.3 364.1 632.1zM503.8 520.9c-.8-.4.3-4.9 2.1-10.2 1.8-5.4 3.5-9.7 4.4-9.5.9.2.5 5-1.3 10.5C507.2 517.2 504.6 521.3 503.8 520.9zM489.3 674.6c-.5-.1 1.5-8.6 3.9-22.5.3-1.7.6-3.5 1-5.4.3-1.9.6-3.9.9-5.9.7-4.1 1.2-8.5 1.8-13.1 1.1-9.2 2.1-19.4 2.8-30.1.6-10.7.8-20.9.7-30.2-.1-4.6-.1-9.1-.3-13.2-.1-2.1-.1-4.1-.2-6-.1-1.9-.2-3.8-.3-5.5-.8-14-1.8-22.7-1.3-22.8.2 0 .7 2.1 1.4 6 .2 1 .3 2.1.6 3.2.2 1.2.3 2.5.5 3.9.4 2.8.8 6 1.1 9.5.2 1.8.3 3.6.5 5.5.2 1.9.3 3.9.4 6 .3 4.2.4 8.6.6 13.3.2 9.4.1 19.7-.5 30.5-.7 10.8-1.8 21-3.1 30.3-.7 4.6-1.4 9-2.2 13.1-.4 2-.7 4-1.1 5.9-.4 1.9-.8 3.7-1.2 5.4-.7 3.5-1.5 6.6-2.2 9.3-.4 1.4-.7 2.6-1 3.8-.3 1.2-.6 2.2-.9 3.2C490.3 672.6 489.5 674.7 489.3 674.6z"/><path fill="none" stroke="#000" stroke-miterlimit="10" d="M334.3,789.3"/><ellipse cx="336.4" cy="773.6" stroke="#000" stroke-miterlimit="10" rx="85.7" ry="1.6" transform="rotate(98.077 336.425 773.662)"/><path stroke="#000" stroke-miterlimit="10" d="M428 766.2c-.8-.4 3-8.4 9.4-17.1 6.3-8.8 12.6-14.9 13.2-14.3.7.6-4.4 7.6-10.6 16.2C433.8 759.7 428.8 766.7 428 766.2zM387.2 901.4c-.5-.2 2.8-7.5 6.7-19.6.5-1.5 1-3.1 1.5-4.8.5-1.7 1-3.4 1.5-5.2 1.1-3.6 2.1-7.5 3.2-11.6 2.1-8.2 4.2-17.3 6.5-26.8 2.2-9.5 4.5-18.6 6.8-26.8 1.2-4.1 2.3-8 3.6-11.6.6-1.8 1.2-3.5 1.8-5.2.6-1.6 1.2-3.2 1.8-4.7 1.1-3 2.3-5.7 3.4-8 .5-1.2 1-2.3 1.5-3.3.5-1 1-1.9 1.4-2.7 1.7-3.2 2.7-4.9 2.9-4.8.5.2-2.9 7.4-7 19.5-.5 1.5-1 3.1-1.6 4.8-.5 1.7-1 3.4-1.6 5.2-1.1 3.6-2.1 7.5-3.2 11.5-2.1 8.2-4.3 17.2-6.5 26.8-2.2 9.5-4.5 18.6-6.7 26.8-1.2 4.1-2.3 8-3.5 11.6-.6 1.8-1.1 3.5-1.7 5.2-.6 1.7-1.2 3.2-1.7 4.8-1.1 3-2.3 5.7-3.3 8.1-.5 1.2-1 2.3-1.4 3.3-.5 1-.9 1.9-1.4 2.7C388.4 899.8 387.4 901.5 387.2 901.4zM285.1 988.3c-.2 0-.2-2.2 0-6.2.1-1 .1-2.1.2-3.3.1-1.2.3-2.5.4-3.9.4-2.8.7-6.1 1.3-9.6.3-1.8.6-3.6 1-5.5.3-1.9.8-3.9 1.2-6 .8-4.1 2-8.5 3.1-13.1 2.4-9.1 5.5-19.1 9-29.4 3.5-10.3 7-20.1 10.2-29 3.2-8.9 6-16.9 8.3-23.6 4.6-13.5 7.2-21.9 7.7-21.8.2.1-.2 2.2-1.1 6.1-.2 1-.5 2.1-.8 3.2-.3 1.2-.7 2.5-1 3.8-.8 2.7-1.6 5.9-2.6 9.3-2 6.9-4.7 14.9-7.7 23.9-3.1 8.9-6.4 18.7-10 29-3.5 10.3-6.6 20.2-9.2 29.2-1.2 4.5-2.5 8.8-3.4 12.9-.5 2-1 4-1.4 5.9-.4 1.9-.8 3.7-1.2 5.5-.8 3.5-1.3 6.6-1.8 9.4-.3 1.4-.5 2.7-.7 3.9-.2 1.2-.3 2.3-.5 3.3C285.7 986.2 285.3 988.3 285.1 988.3zM370.1 993.8c-.9-.3 4.2-20.6 8.5-46 4.3-25.4 6.2-46.3 7.1-46.2.4 0 .5 5.3 0 13.8-.5 8.5-1.8 20.2-3.9 33-2.2 12.8-4.9 24.3-7.2 32.4C372.4 989 370.5 993.9 370.1 993.8zM364.4 1003.5c.1.2-.9.8-2.8 1.8-.5.2-1 .5-1.6.8-.6.3-1.2.5-2 .7-1.4.5-3 1.2-4.9 1.6-.9.2-1.9.5-2.9.7-1 .2-2.1.4-3.2.6-2.2.4-4.6.6-7.1.8-5 .2-10.6-.1-16.3-1.2-5.7-1.1-10.9-3-15.5-5.1-1.1-.6-2.2-1.1-3.3-1.6-1.1-.5-2-1.2-3-1.7-1.9-1.1-3.6-2.3-5.1-3.5-.4-.3-.8-.5-1.1-.8-.4-.3-.7-.6-1-.8-.6-.6-1.3-1.1-1.8-1.6-.6-.5-1.1-.9-1.5-1.4-.4-.5-.8-.9-1.2-1.3-1.4-1.6-2.1-2.5-2-2.6.2-.2 1.2.5 2.8 1.7.4.3.9.7 1.4 1 .5.4 1.1.7 1.7 1.2.6.4 1.2.9 1.9 1.3.3.2.7.5 1 .7.4.2.8.5 1.1.7 1.6 1 3.2 2.1 5.2 3 1 .5 1.9 1.1 3 1.5 1 .5 2.1 1 3.2 1.4 4.4 1.8 9.5 3.6 14.9 4.6 5.5 1.1 10.7 1.4 15.6 1.4 2.4-.1 4.7-.1 6.8-.5 1.1-.1 2.1-.2 3.1-.4 1-.2 1.9-.4 2.8-.5 1.8-.3 3.4-.7 4.8-1.1.7-.2 1.4-.3 2-.5.6-.2 1.1-.3 1.6-.5C363.2 1003.5 364.3 1003.2 364.4 1003.5zM507.6 961.5c-.2 0-.4-3.9-.4-10.9 0-3.5 0-7.8-.1-12.8 0-5 0-10.7-.2-17 0-3.1-.1-6.4-.1-9.9-.1-3.4-.1-7-.2-10.7-.1-7.4-.4-15.3-.7-23.6-.6-16.6-1.5-34.9-2.7-54-1.3-19.1-2.8-37.3-4.4-53.9-.8-8.3-1.6-16.1-2.4-23.5-.4-3.7-.8-7.2-1.2-10.6-.4-3.4-.8-6.7-1.2-9.8-.7-6.2-1.5-11.9-2.1-16.8-.6-5-1.1-9.2-1.6-12.7-.9-7-1.3-10.9-1-10.9.2 0 1 3.8 2.3 10.7.6 3.5 1.4 7.7 2.1 12.6.8 4.9 1.7 10.6 2.6 16.8.4 3.1.9 6.4 1.4 9.8.4 3.4.9 7 1.4 10.6 1 7.3 1.8 15.2 2.7 23.5 1.7 16.6 3.4 34.8 4.7 54 1.2 19.2 2 37.5 2.4 54.1.2 8.3.3 16.2.4 23.6 0 3.7.1 7.3 0 10.7 0 3.4-.1 6.7-.1 9.9 0 6.3-.2 12-.3 17-.1 5-.3 9.3-.5 12.8C508.2 957.6 507.9 961.5 507.6 961.5zM437.9 877.2c-.9.1-3.7-16-7.7-35.7-4-19.7-7.9-35.6-7-35.9.8-.2 6.1 15.3 10.2 35.2C437.5 860.7 438.8 877.1 437.9 877.2zM433 1004.4c-.4.1-1.6-5.9-2.7-15.6-.6-4.9-1-10.7-1.4-17.1-.3-6.5-.6-13.6-.5-21 0-7.5.3-14.6.7-21 .4-6.5 1-12.2 1.5-17.1 1.2-9.7 2.4-15.6 2.8-15.6.5.1.1 6.1-.5 15.8-.3 4.9-.6 10.6-.8 17-.2 6.4-.4 13.5-.4 20.9 0 7.4.1 14.5.3 20.9.2 6.4.5 12.2.7 17.1C433.1 998.3 433.5 1004.3 433 1004.4zM511.8 1006.4c.1.2-.8.9-2.6 1.9-.4.3-.9.5-1.5.9-.6.3-1.2.6-1.8.9-1.3.6-2.8 1.4-4.6 2-.9.3-1.8.7-2.7 1-.9.4-2 .6-3 1-2.1.7-4.4 1.2-6.7 1.7-4.8 1-10.2 1.6-15.9 1.7-5.7 0-11.1-.6-15.9-1.5-2.4-.5-4.7-1-6.8-1.7-1-.3-2.1-.6-3-.9-.9-.3-1.9-.7-2.7-1-1.7-.6-3.3-1.4-4.6-2-.7-.3-1.3-.6-1.8-.9-.5-.3-1-.6-1.5-.9-1.8-1-2.7-1.7-2.6-1.9.1-.2 1.2.1 3.1.8.5.2 1 .4 1.6.6.6.2 1.2.4 1.9.6 1.4.4 2.9 1 4.6 1.5.9.2 1.8.5 2.7.8.9.3 1.9.5 3 .7 2 .5 4.3.9 6.6 1.3 4.7.7 9.9 1.2 15.3 1.2 5.5-.1 10.7-.6 15.3-1.4 2.3-.4 4.6-.8 6.6-1.4 1-.3 2-.5 3-.7.9-.3 1.8-.5 2.7-.8 1.7-.5 3.3-1.1 4.6-1.5.7-.2 1.3-.4 1.9-.6.6-.2 1.1-.4 1.6-.6C510.6 1006.5 511.7 1006.2 511.8 1006.4z"/><ellipse cx="289.5" cy="1048.4" stroke="#000" stroke-miterlimit="10" rx="47.6" ry="1.6" transform="scale(-1) rotate(-82.767 -1189.89 328.548)"/><path stroke="#000" stroke-miterlimit="10" d="M321.8,1095.8c-0.4-0.1,0-4.9,1.3-12.5c1.3-7.7,3.6-18.2,6.9-29.6c3.3-11.4,6.9-21.6,9.8-28.8
					c2.9-7.2,5.1-11.5,5.5-11.3c0.9,0.4-5.8,18.3-12.2,41C326.6,1077.2,322.8,1096,321.8,1095.8z"/><path stroke="#000" stroke-miterlimit="10" d="M341.3 1117c-.6.6-5.8-3.4-11.2-9.3-5.4-5.9-9-11.3-8.3-11.9.7-.6 5.3 3.9 10.7 9.7C337.9 1111.3 341.9 1116.3 341.3 1117zM442.3 1095.8c-.9-.1.2-17.4.6-38.7.5-21.3 0-38.7.9-38.7.9-.1 2.8 17.3 2.3 38.8C445.8 1078.6 443.2 1095.9 442.3 1095.8z"/><ellipse cx="489.4" cy="1059.4" stroke="#000" stroke-miterlimit="10" rx="36.4" ry="1.6" transform="rotate(92.711 489.434 1059.39) scale(1.00002)"/><path stroke="#000" stroke-miterlimit="10" d="M521 1121.6c-.7.6-7.1-6-15.2-13.7-8.1-7.8-15.1-13.7-14.5-14.5.5-.7 8.5 4.2 16.7 12.1C516.3 1113.4 521.7 1121.1 521 1121.6zM277 1143.6c-.9.1-2-7.7-.7-17.3 1.2-9.6 4.3-16.8 5.1-16.5.9.3-.7 7.7-1.9 16.9C278.3 1135.9 277.9 1143.5 277 1143.6zM364 1155.2c-.1.5-4.5 0-11.7-.3-3.6-.2-7.8-.3-12.6-.5-4.8-.2-10-.3-15.5-.6-5.5-.3-10.8-.9-15.5-1.6-2.4-.4-4.6-.8-6.7-1.3-1-.3-2.1-.5-3-.7-1-.3-1.9-.6-2.7-.8-1.8-.5-3.3-1.1-4.6-1.7-.7-.3-1.3-.5-1.9-.8-.6-.3-1.1-.5-1.5-.8-1.8-.9-2.8-1.6-2.7-1.8.2-.5 4.4 1.2 11.3 2.8.9.2 1.8.4 2.7.6 1 .2 2 .3 3 .5 2 .4 4.3.7 6.6 1 4.7.6 9.9 1 15.3 1.3 5.5.3 10.7.6 15.5.9 4.8.3 9.1.7 12.7 1.2C359.7 1153.6 364.1 1154.8 364 1155.2zM379.3 1150.6c-.4.2-1.8-2-4.2-5.2-1.2-1.6-2.7-3.5-4.4-5.6-1.8-2-3.8-4.1-6-6.2-2.3-2.1-4.6-3.9-6.7-5.5-2.2-1.5-4.2-2.9-5.9-3.9-3.5-2.1-5.7-3.3-5.6-3.8.1-.4 2.7.1 6.6 1.7 1.9.8 4.2 2 6.6 3.5 2.4 1.5 4.8 3.4 7.2 5.6 2.4 2.2 4.4 4.5 6.2 6.7 1.7 2.2 3.1 4.4 4 6.2C379 1147.8 379.6 1150.4 379.3 1150.6zM439.6 1145.4c-.4.1-1.2-1.4-1.9-3.9-.7-2.5-1.2-6.1-1.2-10 0-4 .5-7.5 1.2-10 .7-2.5 1.4-4 1.8-3.9.9.2.2 6.4.3 13.9C439.8 1139 440.5 1145.2 439.6 1145.4zM543.4 1151.1c0 .4-5.5 1.4-14.5 2.2-9 .9-21.6 1.5-35.4 1.3-13.8-.2-26.4-1.1-35.4-2.2-9-1.1-14.5-2.1-14.5-2.6.1-.5 5.6-.2 14.7.3 9 .5 21.5 1 35.2 1.2 13.8.2 26.2-.1 35.2-.4C537.8 1150.7 543.4 1150.6 543.4 1151.1zM548.9 1144.3c-.4.2-1.5-1.3-3.2-3.4-.9-1.1-2-2.3-3.2-3.6-1.3-1.3-2.8-2.6-4.5-3.8-1.7-1.2-3.4-2.2-5-3.1-1.6-.8-3.1-1.5-4.4-2-2.6-1-4.3-1.5-4.2-2 0-.4 1.9-.7 4.9-.2 1.5.2 3.2.7 5 1.5 1.8.8 3.8 1.8 5.6 3.2 1.9 1.4 3.4 2.9 4.7 4.4 1.3 1.5 2.3 3 3 4.3C549 1142.3 549.3 1144.1 548.9 1144.3zM515.1 467.1c-.6.8-12.6-9.5-29.9-17.9-17.2-8.5-32.6-11.7-32.4-12.7.1-.4 4-.1 10.3 1.3 1.6.4 3.3.8 5.1 1.3 1.8.5 3.7 1.1 5.7 1.8 4 1.4 8.3 3.2 12.7 5.3 4.4 2.2 8.4 4.5 12 6.8 1.8 1.2 3.4 2.3 5 3.4 1.5 1.1 2.9 2.2 4.1 3.2C512.7 463.8 515.4 466.8 515.1 467.1zM569.3 493.1c-.5.8-10.5-4.9-23.1-11.3-12.6-6.4-23.1-11-22.8-11.9.3-.8 11.5 2.5 24.2 9C560.4 485.3 569.7 492.3 569.3 493.1zM584.1 532.2c.2.3-3.7 2.8-10.6 5-3.5 1.1-7.8 2-12.6 2.5-4.8.5-10.2.4-15.7-.4-5.5-.8-10.7-2.2-15.2-3.7-4.6-1.5-8.6-3-11.9-4.5-6.6-2.9-10.4-5.2-10.3-5.6.2-.4 4.3 1.2 11.1 3.5 3.4 1.1 7.4 2.5 11.9 3.7 4.5 1.3 9.5 2.6 14.8 3.4 10.6 1.6 20.4.4 27.3-1.1C579.8 533.4 583.9 531.7 584.1 532.2zM591.2 431.3c.7.6-7.4 11.7-15.9 26.3-2.1 3.7-4.1 7.2-5.8 10.4-1.7 3.2-3.3 6.1-4.3 8.6-2.1 5-1.4 8.4-1.9 8.5-.2 0-.7-.8-.9-2.4-.3-1.6-.1-4.1.6-6.9.8-2.8 2.2-5.9 3.8-9.2 1.6-3.3 3.5-7 5.7-10.7C581.1 441.1 590.5 430.7 591.2 431.3zM615.1 434.7c.4 0 .4 5.5-.5 14.3-.4 4.4-1.1 9.6-2.1 15.4-1 5.8-2.3 12.1-4 18.6-1.7 6.6-3.5 12.7-5.3 18.3-1.9 5.6-3.7 10.5-5.4 14.6-3.4 8.2-6 13-6.4 12.8-.9-.4 7.5-20.5 14-46.5C612 456.3 614.1 434.6 615.1 434.7z"/><path stroke="#000" stroke-miterlimit="10" d="M664.1 429.3c.3.3-2 3.1-6.4 6.8-2.2 1.9-5 4-8.2 6-1.6 1-3.4 2.2-5.5 2.9-1.1.4-2.3.7-3.5.7-1.3.1-2.6-.1-3.8-.5-1.5-.5-2.7-1.2-3.9-1.8-1.1-.7-2.2-1.3-3.3-2-2.1-1.3-4.1-2.6-6-3.8-1.9-1.2-3.6-2.4-5.1-3.5-.4-.3-.8-.5-1.1-.8-.2-.1-.4-.3-.5-.4-.2-.1-.4-.3-.4-.3-.4-.3-.7-.6-1-.9-.1 0-.1-.1-.2-.1l-.1.1c-.1.1-.1.2-.2.3-.1.2-.2.4-.3.6-.2.4-.3.8-.3 1.3-.1.9-.1 1.4-.3 1.5-.2 0-.5-.4-.7-1.4-.1-.5-.2-1.3 0-2.2.1-.5.2-.9.5-1.4.1-.2.2-.5.3-.8.1-.1.1-.3.2-.4.1-.1.2-.1.3-.2.9.5 1.8 1.1 2.9 1.7.7.4 1.5.9 2.4 1.4 1.6.9 3.4 2 5.3 3.1 1.9 1.1 4 2.3 6.1 3.6 1.1.6 2.2 1.3 3.3 1.9 1.1.6 2.2 1.2 3.3 1.5 3.4 1.2 7.1-.8 10.3-2.6 3.2-1.9 6.1-3.7 8.4-5.3C660.9 431.1 663.7 428.9 664.1 429.3zM617.4 408.6c-.4-.3 1.7-4.2 5.5-10.3.5-.8 1-1.6 1.5-2.4.3-.4.5-.8.8-1.3.2-.4.4-.8.4-.9.1-.4-.2-.8-.6-.8-.3-.1-.8-.1-1.2-.1-.2 0-.5 0-.7.1-.3 0-.6.1-.9.1-4.6.8-9.7 1.7-13.9 4.4-4.2 2.7-6.8 7.2-8.8 11.3-2 4.2-3.8 8.1-5.4 11.3-3.2 6.4-5.3 10.3-5.7 10.1-.4-.2 1-4.4 3.6-11 1.3-3.3 2.9-7.2 4.8-11.6 1-2.2 2.2-4.5 3.7-6.7 1.6-2.2 3.5-4.4 6-6 2.5-1.6 5.2-2.6 7.8-3.3 2.6-.7 5.1-1 7.5-1.4.3 0 .6-.1.9-.1.3 0 .7-.1 1-.1.7 0 1.4 0 2.1.2.9.3 1.7.8 2.1 1.6.4.8.5 1.7.3 2.5-.3.9-.6 1.3-.9 1.8-.3.4-.6.8-.9 1.2-.6.8-1.1 1.6-1.6 2.3C620.6 405.4 617.8 408.9 617.4 408.6zM662.9 399.2c.2.4-1.8 2.1-5.2 4.7-1.7 1.3-3.8 2.7-6.1 4.3-1.2.8-2.4 1.6-3.7 2.5-1.3.8-2.8 1.7-4.6 2.3-1.8.6-3.7.7-5.3.5-1.7-.2-3.1-.5-4.5-.8-2.8-.7-5.3-1.5-7.3-2.3-4-1.6-6.3-3.1-6.1-3.5.2-.4 2.7.3 6.8 1.3 2 .5 4.5 1 7.2 1.5 2.7.5 5.7 1 8.2.1 2.7-.9 5.2-2.8 7.6-4.2 2.4-1.4 4.6-2.7 6.5-3.7C660.2 399.9 662.6 398.8 662.9 399.2z"/><path stroke="#000" stroke-miterlimit="10" d="M663.4 430.3c-.3-.3.9-2.6 3.3-6.1.3-.4.6-.9.9-1.4.3-.5.7-1 .9-1.4.2-.5.4-.9.4-1.2 0-.3-.1-.6-.4-1-.5-.7-1.5-1.2-2.5-1.2-1.1 0-2.4.4-3.8 1.1-11.7 5.5-21.5 9.4-21.9 8.6-.4-.8 8.8-6 20.5-11.5 1.5-.7 3.3-1.4 5.2-1.3 2 .1 3.9 1.1 5 2.7.5.8.8 1.9.7 2.9-.1 1-.5 1.8-.9 2.4-.4.6-.8 1.1-1.2 1.5-.4.4-.8.9-1.1 1.3C665.7 428.8 663.8 430.6 663.4 430.3zM667.7 409.4c-.2.1-.6-.1-1.2-.4-.6-.2-1.4-.4-2.5-.2-1.1.2-2.5.6-3.9 1.3-1.5.8-3.2 1.6-5 2.5-7.2 3.5-13.2 6-13.6 5.2-.4-.8 4.9-4.6 12.2-8.2 1.8-.9 3.5-1.7 5.3-2.3 1.8-.7 3.5-1 5-.9 1.5.1 2.8.8 3.4 1.5C667.9 408.8 667.9 409.3 667.7 409.4z"/><path stroke="#000" stroke-miterlimit="10" d="M663.3 415.4c-.3-.3-.3-.9-.2-1.5.1-.6.3-1.3.7-2 .3-.7.7-1.3 1.1-1.8.4-.5.8-.8 1.3-.8.4 0 .8.5 1 1.2.2.7.1 1.8-.4 2.8-.5 1-1.2 1.7-1.8 2.1C664.2 415.8 663.6 415.7 663.3 415.4zM661.5 406.4c-.2-.4.2-1 .3-1.6.2-.6.3-1.5.2-2.1-.1-.6-.6-1.3-1.1-1.8-.5-.5-1-.8-1-1.3-.1-.4.6-1 1.8-.9.6.1 1.3.3 2 .8.7.5 1.3 1.3 1.5 2.4.2 1 .1 2-.3 2.8-.4.8-.9 1.3-1.4 1.6C662.5 407 661.6 406.8 661.5 406.4zM665.9 427c0 .2-.4.5-1.3.4-.8-.1-1.9-.6-3-1-1.1-.4-1.8-.4-3.1.4-.6.3-1.3.9-2.1 1.4-.8.5-1.6 1-2.4 1.5-6.6 4.1-12.3 6.8-12.8 6-.5-.8 4.5-4.7 11.1-8.8.8-.5 1.6-1 2.4-1.5.8-.5 1.5-.9 2.4-1.3.9-.4 1.9-.7 3-.6 1.1.1 1.9.5 2.5.9 1.2.8 1.8 1.5 2.3 1.9C665.6 426.6 665.9 426.8 665.9 427zM635.4 430.8c-.5.7-5.2-1.7-11-4.7-5.8-2.9-10.6-5.3-10.3-6.1.3-.8 5.7.2 11.7 3.2C631.9 426.3 635.9 430.1 635.4 430.8zM566.7 309c-.1.5-3.8-.4-9.6 1-2.9.7-6.2 2-9.8 3.9-.9.5-1.8 1-2.7 1.5-.5.3-.9.6-1.4.8-.7.4-1.3.8-2 1.2-1.7 1.1-3.4 2.3-5.2 3.5-1.8 1.2-3.7 2.5-5.5 3.8l.1-.2.1-.2.3-.5.5-1c.3-.6.7-1.3 1-1.9.7-1.3 1.4-2.6 2.1-4 .7-1.3 1.4-2.7 2.2-4.1.5-.9 1-1.9 1.5-2.9 2.8-5.5 5.4-10.7 7.4-15.6 2-4.9 3.5-9.4 4.6-13.3 1.1-3.9 1.6-7.1 2-9.3.3-2.2.6-3.5.8-3.5.2 0 .4 1.3.4 3.6 0 2.3-.2 5.6-1 9.7-.8 4-2.1 8.8-4 13.9-1.9 5.1-4.4 10.5-7.3 16-.3.6-.6 1.2-1 1.8l-.3.5c-.1.2-.2.4-.3.6l-.2.3-.1.2 0 .1c0 0 0 .1 0 0 .5-.3 1-.6 1.5-.9l.2-.1.7-.4c.5-.3 1-.6 1.5-.8 1-.5 2-1 2.9-1.5 3.8-1.8 7.5-3 10.7-3.5 3.2-.5 5.7-.3 7.4 0C565.8 308.4 566.7 308.8 566.7 309zM569.5 150.8c.4 0 .5 6.4 0 16.7-.5 10.3-1.7 24.4-3.7 40-2.1 15.6-4.6 29.5-6.7 39.6-2.2 10.1-3.9 16.2-4.3 16.1-.5-.1.5-6.4 2-16.5 1.6-10.1 3.7-24.1 5.8-39.6 2-15.5 3.6-29.6 4.7-39.8C568.3 157.1 569 150.8 569.5 150.8zM752 308.7c0 .2-2.3.8-6.5 1.7-1.1.2-2.2.5-3.5.7-1.3.2-2.7.5-4.2.7-3 .5-6.5 1.1-10.3 1.5-1.9.2-3.9.5-6 .7-2.1.2-4.3.4-6.6.6-4.5.5-9.4.7-14.5 1-10.2.4-21.5.5-33.3-.1-11.8-.6-23-1.8-33.2-3.3-5.1-.8-9.9-1.5-14.3-2.4-2.2-.4-4.4-.8-6.5-1.3-2.1-.5-4-.9-5.9-1.3-3.8-.8-7.2-1.8-10.1-2.5-1.5-.4-2.9-.8-4.1-1.1-1.3-.4-2.4-.7-3.4-1.1-4.1-1.3-6.4-2.1-6.3-2.3.1-.2 2.4.2 6.6 1.1 1.1.2 2.2.5 3.5.8 1.3.3 2.7.6 4.2.9 3 .6 6.4 1.4 10.2 2.1 1.9.4 3.9.7 5.9 1.1 2.1.4 4.2.7 6.5 1.1 4.5.8 9.2 1.4 14.3 2.1 10.1 1.3 21.2 2.4 32.9 3 11.7.6 22.9.6 33.1.4 5.1-.2 9.9-.3 14.4-.7 2.3-.2 4.4-.2 6.5-.4 2.1-.2 4.1-.3 6-.5 3.8-.3 7.3-.7 10.3-1 1.5-.2 2.9-.3 4.2-.4 1.3-.2 2.5-.3 3.6-.4C749.6 308.7 752 308.5 752 308.7zM766.2 293.4c-.5-.1.3-7.4 1.6-19.1 1.4-11.7 3.4-27.9 5.6-45.8 2.2-17.9 4.1-34.1 5.5-45.8 1.5-11.7 2.5-19 3-18.9.4 0 .2 7.4-.7 19.2-.9 11.8-2.4 28.1-4.6 46-2.2 17.9-4.5 34.1-6.5 45.8C768.1 286.3 766.6 293.5 766.2 293.4zM783 153c0 .2-2.9.2-8.1 0-5.2-.2-12.7-.6-22-1-9.3-.4-20.4-.8-32.7-1.2-12.3-.3-25.8-.6-40-.6-14.2 0-27.7.2-40 .4-12.3.3-23.4.7-32.7 1.1-9.3.4-16.8.7-22 .9-5.2.2-8.1.2-8.1 0 0-.2 2.8-.7 8-1.2 2.6-.3 5.8-.6 9.5-.9 3.7-.3 7.9-.7 12.5-1 9.3-.7 20.4-1.3 32.7-1.8 12.3-.4 25.9-.7 40.1-.7 14.2 0 27.8.4 40.1.9 12.3.5 23.4 1.2 32.7 1.9 4.6.3 8.8.7 12.5 1.1 3.7.3 6.9.7 9.4 1C780.2 152.3 783.1 152.8 783 153zM597.2 260.1c-.4.1-1.2-1.9-1.7-5.3-.6-3.3-.9-8-.6-13.2.3-5.2 1.2-9.8 2.2-13.1 1-3.3 1.9-5.2 2.3-5 .9.3-.7 8.3-1.3 18.3C597.5 251.8 598.2 260 597.2 260.1zM625.6 221.4c-.5.8-5.4-1.6-11.8-1.9-6.4-.4-11.6 1.3-12 .5-.2-.4.9-1.4 3.1-2.3 1.1-.5 2.4-.9 4-1.1 1.5-.3 3.3-.4 5.1-.3 1.8.1 3.5.4 5 .9 1.5.5 2.8 1 3.8 1.6C624.9 219.9 625.8 221 625.6 221.4zM623.4 263.4c-.1.9-5.8 1.2-12.8 1.4-7 .2-12.8.2-12.9-.7-.1-.9 5.6-2.4 12.8-2.5C617.7 261.3 623.5 262.5 623.4 263.4z"/><ellipse cx="624.7" cy="245.1" stroke="#000" stroke-miterlimit="10" rx="28.9" ry="1.6" transform="matrix(.01716 .9999 -.9999 .01716 858.981 -383.708)"/><ellipse cx="634.6" cy="209.1" stroke="#000" stroke-miterlimit="10" rx="8.9" ry="1.6" transform="rotate(-24.943 634.64 209.107)"/><path stroke="#000" stroke-miterlimit="10" d="M651.8 175.1c.8.5-2.5 7.6-5.3 16.7-2.8 9.1-4.1 16.9-5 16.8-.4 0-.7-2.1-.5-5.3.2-3.2.9-7.7 2.4-12.4 1.5-4.7 3.4-8.8 5-11.6C650.1 176.4 651.4 174.9 651.8 175.1zM672.9 204.3c-.9.3-4.2-6.9-8.7-15.6-2.2-4.3-4.3-8.3-5.7-11.1-.2-.4-.3-.7-.5-1l-.1-.2-.1-.1c0-.1-.1-.2-.2-.3-.3-.4-.7-.6-1-.8-.2-.2-.6-.1-.7 0-.1.1-.1.2-.2.1 0-.1-.1-.4-.1-.7.1-.3.5-.6 1.1-.6.6 0 1.3.2 2 .7.2.1.3.3.5.4l.2.3.2.2c.2.3.5.6.7.9 2 2.6 4.4 6.4 6.7 10.8C671.7 196.1 673.8 204 672.9 204.3zM695.1 253.6c-.4-.2 1.4-4.1 3.8-10.5 1.2-3.2 2.5-7 3.8-11.3.6-2.2 1.2-4.4 1.8-6.8.6-2.4 1.1-4.8.8-6.9-.3-2.1-1.7-3.8-3.5-5-1.9-1.2-4-2-6.1-2.7-4.3-1.3-8.2-2.6-11.5-3.7-6.5-2.2-10.5-3.8-10.4-4.2.1-.4 4.3.4 11 2 3.4.8 7.3 1.8 11.7 3 2.2.6 4.6 1.4 7 2.9 1.2.7 2.3 1.7 3.2 2.9.9 1.2 1.6 2.7 1.8 4.3.2 1.5.1 3-.1 4.4-.2 1.4-.5 2.6-.8 3.8-.6 2.4-1.3 4.8-2 7-1.4 4.4-3 8.2-4.5 11.4C698 250.3 695.5 253.8 695.1 253.6zM680.2 276.4c0 .4-2.9 1.2-7.9 1.5-2.5.2-5.4.3-8.7.2-3.3-.1-6.9-.4-10.6-1-3.7-.6-7.2-1.4-10.4-2.2-3.1-.9-5.9-1.8-8.2-2.7-4.6-1.8-7.2-3.4-7-3.8.4-.9 11.6 3.4 26.2 5.6C668.1 276.2 680.1 275.5 680.2 276.4z"/><path stroke="#000" stroke-miterlimit="10" d="M681.3 277.2c-.7-.5 2.4-6 6.1-12.8 3.8-6.7 6.8-12.3 7.7-11.9.8.3-.9 6.6-4.8 13.5C686.4 272.9 682 277.7 681.3 277.2zM447.2 440.9c.2 0 .4 1 .2 2.7-.2 1.7-.9 4.3-2.6 7-1.7 2.7-4.5 5.6-8.5 7.3-3.9 1.7-8.9 2.3-13.7 1-2.4-.7-4.6-1.8-6.5-3.1-1.9-1.3-3.6-2.6-5.1-3.9-3-2.6-5.7-5.1-7.6-7.6-1.9-2.5-3-4.8-3.5-6.5-.5-1.7-.4-2.7-.2-2.7.5-.1 1.4 3.5 5.5 7.7 2 2.1 4.7 4.4 7.8 6.8 3.1 2.4 6.5 5.1 10.5 6.2 4.1 1.1 8.3.7 11.7-.6 3.4-1.3 6-3.6 7.7-5.9 1.8-2.2 2.7-4.4 3.3-5.9C446.7 441.7 446.9 440.8 447.2 440.9z"/><path stroke="#000" stroke-miterlimit="10" d="M454.2 459.6c.1.2-.8.9-2.5 2.1-1.7 1.2-4.3 2.8-7.6 4.5-3.3 1.7-7.5 3.6-12.4 4.9-4.9 1.2-10.7 1.7-16.6.3-2.9-.7-5.7-1.9-8-3.4-2.4-1.5-4.5-3.2-6.3-5-3.6-3.5-6.5-7.1-8.5-10.2-4.2-6.4-5.5-10.9-5.1-11 .5-.2 2.5 3.9 7 9.7 2.2 2.9 5.1 6.1 8.7 9.3 3.6 3.2 7.9 6.2 13.1 7.4 5.2 1.3 10.5.9 15.1 0 4.6-1 8.7-2.6 12.1-4 3.4-1.4 6.1-2.7 8-3.6C452.9 459.8 454.1 459.4 454.2 459.6zM328.9 560.3c-.4.4-2.7-1.6-6.9-4.3-.5-.3-1.1-.7-1.6-1-.6-.4-1.2-.7-1.8-1-1.2-.7-2.6-1.4-4.1-2.1-2.9-1.4-6.2-2.7-9.8-3.7-3.6-1-7.1-1.7-10.3-2.1-1.6-.1-3.1-.3-4.6-.4-.7 0-1.4-.1-2.1-.1-.7 0-1.3 0-1.9 0-4.9.1-8 .5-8.1 0-.1-.4 2.9-1.6 8-2.3.6-.1 1.3-.1 2-.2.7-.1 1.4-.1 2.2-.1 1.5-.1 3.1 0 4.8.1 3.4.3 7.1.8 10.9 1.9 3.8 1.1 7.2 2.6 10.3 4.2 1.5.8 2.9 1.6 4.1 2.5.6.4 1.2.8 1.8 1.2.6.4 1.1.9 1.6 1.3C327.4 557.4 329.2 560 328.9 560.3zM327.5 532.3c-.4.9-7.5-1.6-16.6-3.1-9.1-1.6-16.6-1.6-16.7-2.5 0-.4 1.9-1 5-1.3 3.1-.3 7.5-.2 12.2.6 4.7.8 8.9 2.2 11.8 3.4C326.1 530.7 327.7 531.9 327.5 532.3zM550.3 533.7c-.4-.3.7-2.6 2.2-6.5.4-1 .8-2 1.2-3.2.4-1.1.8-2.4 1.2-3.7.7-2.6 1.4-5.6 1.9-8.7.5-3.1.7-6.1.8-8.8 0-1.4.1-2.7 0-3.9 0-1.2-.1-2.4-.1-3.4-.3-4.2-.6-6.8-.2-6.9.4-.1 1.6 2.3 2.4 6.6.2 1.1.4 2.2.6 3.5.2 1.3.2 2.6.3 4.1.1 2.9-.1 6.1-.6 9.3-.5 3.3-1.3 6.4-2.3 9.1-.5 1.3-1 2.6-1.5 3.8-.5 1.2-1.1 2.2-1.6 3.2C552.4 531.9 550.6 533.9 550.3 533.7zM533.8 530.1c-.7-.6 3-6 5.5-13.6 2.5-7.6 2.7-14.2 3.7-14.2.4 0 1 1.7 1.1 4.5.1 2.8-.3 6.7-1.6 10.8-1.3 4.1-3.3 7.5-5.1 9.6C535.6 529.4 534.1 530.4 533.8 530.1zM428.5 362.8c.3.9-2 2.5-4.7 4.4-2.7 1.9-4.9 3.7-5.7 3.1-.3-.3-.2-1.1.4-2.2.6-1.1 1.8-2.4 3.3-3.5 1.5-1.1 3.1-1.8 4.4-2.1C427.5 362.3 428.4 362.4 428.5 362.8zM464 376.1c.2.4-1.8 2-5.7 3.3-3.8 1.3-9.7 2.2-15.9.7-6.2-1.4-11.1-4.7-13.9-7.6-2.9-2.9-4-5.2-3.6-5.5.4-.3 2.1 1.5 5.1 3.7 3 2.3 7.6 4.9 13.2 6.2 5.6 1.3 10.8.9 14.6.2C461.5 376.5 463.8 375.7 464 376.1zM450.4 313.6c-.6.8-4.3-1.2-9.2-1.8-4.9-.8-9 0-9.3-.8-.1-.4.8-1.2 2.6-1.8 1.8-.6 4.4-1 7.2-.6 2.9.4 5.3 1.5 6.8 2.6C450 312.3 450.7 313.3 450.4 313.6zM488.2 310.8c-.2.4-1.2.3-2.6.3-1.4-.1-3.3-.1-5.4.2-2.1.3-3.9.9-5.2 1.4-1.3.5-2.3.9-2.6.5-.3-.3.1-1.3 1.3-2.5 1.2-1.2 3.4-2.3 5.9-2.7 2.6-.4 5 .1 6.5.8C487.7 309.5 488.4 310.4 488.2 310.8z"/><path fill="none" stroke="#000" stroke-miterlimit="10" d="M430.7,693.8"/><path stroke="#000" stroke-miterlimit="10" d="M481.6 691.9c.1.1-.6 1.2-2.2 2.8-1.6 1.6-4.1 3.8-7.7 5.9-3.5 2.1-8 4.2-13.2 5.7-5.2 1.5-11.2 2.4-17.4 2.5-6.2.1-12.2-.6-17.4-1.5-5.3-1-9.9-2.2-13.8-3.4-3.9-1.2-7-2.4-8.9-3.6-2-1.2-2.9-2.1-2.8-2.2.1-.2 1.3.3 3.3 1.1 2.1.8 5.1 1.6 9 2.5 7.7 1.8 18.5 4.1 30.5 3.9 6-.1 11.7-.8 16.7-2.1 5-1.3 9.4-3 12.9-4.8 3.5-1.8 6.2-3.6 8-4.8C480.4 692.5 481.4 691.8 481.6 691.9zM485.8 691.1c-.3-.4.3-1.3 1.1-2.7.4-.7.8-1.5 1.2-2.4.4-.9.8-2 1.1-3.1.3-1.1.5-2.2.6-3.2.1-1 .2-1.9.2-2.7 0-1.6 0-2.7.4-2.8.4-.2 1.2.7 1.8 2.5.3.9.5 2 .6 3.2 0 1.2-.1 2.6-.5 4-.4 1.4-1 2.6-1.6 3.7-.7 1-1.4 1.9-2.1 2.5C487.2 691.2 486 691.5 485.8 691.1zM325.4 1102.1c-.1.2-.9-.1-2.3-.4-1.3-.2-3.4-.3-5.6.6-2.2.8-4.6 2.6-5.5 5.4-.1.3-.2.8-.5 1.5-.3.7-.8 1.3-1.4 1.7-.6.4-1.4.5-2.1.3-.4-.1-.7-.2-1.1-.5-.3-.2-.7-.5-.9-.6-1.7-1.2-3.2-2.6-4.6-4.1-1.4-1.5-2.7-2.9-4-3.9-1.3-1.1-2.8-1.9-4.2-2.4-1.4-.5-2.8-.6-4-.3-1.2.3-2.2 1-3 1.8-1.6 1.7-2.4 3.7-3 5-.6 1.3-1 2.1-1.2 2-.2-.1-.2-.9 0-2.4.1-.7.3-1.6.7-2.7.4-1 .9-2.2 1.8-3.4.9-1.2 2.2-2.3 4-2.9 1.8-.6 3.8-.5 5.7 0 1.9.6 3.7 1.5 5.3 2.8 1.6 1.3 3 2.7 4.4 4.2 1.4 1.4 2.7 2.7 4.1 3.7.2.2.2.2.3.2 0 0 .1.1.2.1.1.1.2.1.3 0 .1-.1.2-.2.2-.3 0 0 .2-.4.4-.9.7-1.9 2-3.4 3.4-4.5 1.4-1.1 2.9-1.7 4.3-2.1 2.8-.7 5.2-.2 6.6.4C325 1101.2 325.5 1101.9 325.4 1102.1zM496 1100.5c0 .2-1 .3-2.7.2-1.7 0-4.2-.2-7.1.3-1.4.3-2.9.7-4.3 1.5-1.4.8-2.7 2-3.6 3.4-.4.7-.7 1.5-.8 2.4-.1.4-.1.9-.1 1.5 0 .1 0 .4-.1.6 0 .2-.1.5-.2.7-.1.4-.4.9-.7 1.2-.6.7-1.6 1.1-2.5 1-.5 0-1.1-.2-1.3-.2-.3-.1-.6-.1-.9-.2-1.2-.3-2.4-.8-3.5-1.3-4.5-2.1-8.1-4.9-11.6-6.4-3.5-1.6-7-2.1-9.6-1.4-1.3.4-2.4.9-3.3 1.6-.9.7-1.5 1.5-1.9 2.1-.9 1.4-1.1 2.3-1.3 2.3-.2 0-.4-1.1.2-2.8.3-.9.9-1.9 1.8-2.9.9-1 2.2-1.9 3.8-2.5 1.6-.6 3.5-.8 5.5-.7 2 .2 4 .7 6 1.4 4.1 1.6 7.7 4.3 11.8 6.2 1 .5 2 .8 3 1.1.5.1 1.2.3 1.1.3.1 0 .3 0 .4-.1 0-.1.1-.1.1-.2 0 0 0-.1 0-.1 0 0 0 0 0-.2 0-.4.1-1 .2-1.7.2-1.3.7-2.5 1.3-3.5 2.7-4 7-5.4 10.2-5.6 3.3-.2 5.8.4 7.5.8C495.1 1099.9 496 1100.3 496 1100.5zM508.3 1125.8c0 .2-.4.4-1.1.5-.8.1-1.9.2-3.4-.5-.7-.3-1.6-1.1-1.9-2.2-.3-1.1-.1-2.2.1-3.1.3-1 .6-1.9.8-2.6 0-.1.1-.2.1-.3 0-.1 0-.2 0-.2 0-.1 0-.1 0-.2 0-.1-.1-.3-.2-.3-.1-.1-.2-.1-.3-.1 0 0-.1 0-.1 0-.1 0-.1 0-.2 0-.2 0-.3.1-.5.1-.7.2-1.7.7-2.5 1.1-1.3.6-2.6 1.1-3.8 1.7-.9.4-1.8.8-2.7 1.2-.5.2-1 .4-1.5.6-.5.2-.8.3-1.2.4-.4.1-.8.2-1.2.4l-.6.2-.3.1c-.1 0 0-.1 0-.1l0-.2c.2-.9.4-1.7.6-2.5.3-1.5.9-3 1.6-4.3.1-.1.2-.3.3-.4l.2-.3c.1-.2.3-.4.4-.6.3-.4.5-.7.8-1 .5-.6 1-1 1.4-1.4.9-.7 1.5-.9 1.6-.7.2.2-.1.7-.6 1.6-.3.4-.6 1-.9 1.6-.2.3-.3.6-.5 1-.1.2-.2.4-.2.6l-.1.3c0 .1 0 .1-.1.2-.1.4-.2.8-.2 1.1 0 .2 0 .3 0 .5 0 0 0 .1 0 0l.1 0 .2-.1.3-.2c.2-.1.3-.2.5-.3l.2-.1.1 0 .1-.1.4-.2c1.2-.6 2.5-1.1 3.7-1.7.9-.4 1.7-.8 2.8-1.2.3-.1.6-.2.9-.2.2 0 .3-.1.5-.1.2 0 .4 0 .6 0 .8 0 1.6.3 2.2.7.7.6 1.2 1.4 1.3 2.2.1.4 0 .9 0 1.3 0 .2-.1.3-.1.5 0 .2-.1.3-.1.4-.4 1.1-.8 1.9-1.1 2.6-.6 1.5-.5 2.2.2 2.9.8.6 1.8.9 2.4 1.1C507.9 1125.4 508.3 1125.6 508.3 1125.8zM342.8 1132.6c0 .2-.9.7-2.7.9-.9.1-2 .2-3.3.1-.6 0-1.3-.1-2.1-.2-.4-.1-.8-.1-1.2-.3-.4-.1-1-.4-1.5-.9-.6-.6-1-1.6-1-2.6 0-.9.3-1.7.7-2.4.2-.3.4-.7.6-1 .1-.2.2-.3.4-.5.1-.2.2-.3.3-.4.1-.1.2-.3.2-.5 0-.1 0-.2-.1-.2l-.3.1c-.2.1-.4.1-.5.2-.3.1-.7.2-1 .3-1.7.5-3.5 1-5.1 1.6-1.2.3-2.3.7-3.4 1-.7.2-1.3.4-2 .6-.6.1-1.2.3-1.8.4-.6.1-1.1.3-1.7.4l-.4.1c.1-.1.1-.3.2-.4.1-.3.3-.6.4-.8.6-1.1 1.1-2.1 1.6-3.1.5-1 1.1-1.9 1.7-2.8.1-.2.3-.4.4-.6l.3-.4c.2-.3.4-.5.6-.7 3.1-3.9 5.7-5.5 6-5.2.3.4-1.6 2.6-4.1 6.5-.2.2-.3.5-.5.8l-.2.4-.1.2c-.1.2-.2.5-.3.7-.1.2-.2.4-.2.6l0 .1c0 0 0 0 0 .1l.1 0c.1-.1.3-.1.4-.2.2-.1.5-.2.7-.3l.3-.1c.4-.1.7-.2 1.1-.4 1.6-.5 3.3-1.1 5.1-1.6 1.1-.3 2.3-.7 3.4-1l.9-.3.5-.1c.2-.1.2 0 .3 0 .4 0 .7.1 1.1.1.4 0 .7.1 1.1.1.1 0 .1.1.1.2l.1.3c0 .2.1.4.1.7.1.8-.1 1.6-.4 2.4-.4.8-1 1.7-1.8 2.5-1 1-1.1 1.1-1.4 1.6-.2.4-.4.8-.5 1.1-.1.2 0 .4.1.6.1.1.2.2.4.3.2.1.5.2.8.3.6.2 1.3.3 1.8.4 1.2.2 2.2.4 3 .4C341.8 1132.3 342.8 1132.4 342.8 1132.6zM521.5 864.3c-.5 0-.8-5.5-1.3-14.4-.5-8.9-1.1-21.1-2.3-34.6-1.1-13.5-2.5-25.7-3.5-34.5-1-8.8-1.6-14.3-1.2-14.4.4-.1 1.8 5.3 3.4 14 1.6 8.8 3.4 21 4.5 34.5 1.1 13.6 1.4 25.9 1.3 34.8C522.4 858.8 521.9 864.3 521.5 864.3zM671.5 437.1c.4.2.1 1.5-.9 3.2-1 1.7-2.7 3.9-4.9 5.9-2.3 2-4.7 3.3-6.6 4-1.9.7-3.1.8-3.3.4-.4-.9 3.6-3.2 7.7-6.9C667.8 440.2 670.7 436.6 671.5 437.1zM502.9 659.5c-1-.2 3.3-18.2 4.9-40.9 1.7-22.6.1-41.1 1.1-41.2.4 0 1.4 4.5 2 12 .3 3.7.6 8.2.6 13.2 0 5-.1 10.4-.5 16.2-.4 5.7-1.1 11.2-1.9 16.1-.8 4.9-1.7 9.3-2.5 13C504.9 655.2 503.3 659.6 502.9 659.5zM332.6 1085.8c-.9-.1-.6-7.4 1.8-16 2.3-8.6 5.7-15.1 6.5-14.7.9.3-1.1 7.2-3.4 15.6C335.3 1079.1 333.5 1086 332.6 1085.8z"/><ellipse cx="692.2" cy="177.2" stroke="#000" stroke-miterlimit="10" rx="10.1" ry="1.6" transform="rotate(-56.53 692.253 177.146)"/><path stroke="#000" stroke-miterlimit="10" d="M714.7 176.7c.7.6-1.3 3.9-4.8 6.9-3.5 3-7 4.5-7.5 3.8-.5-.8 2-3.4 5.3-6.3C711.1 178.3 714.1 176.1 714.7 176.7zM745.6 199.6c.4.8-5.1 4-12.4 6.4-7.4 2.4-13.7 3-13.8 2.1-.2-.9 5.7-2.9 12.8-5.2C739.4 200.6 745.2 198.7 745.6 199.6zM536 342c.5.7-3.8 4.2-10.1 6.7-6.2 2.5-11.7 3.1-11.9 2.2-.2-.9 4.7-2.8 10.7-5.2C530.7 343.3 535.5 341.2 536 342z"/><ellipse cx="527.5" cy="359.1" stroke="#000" stroke-miterlimit="10" rx="8.5" ry="1.6" transform="rotate(-7.793 527.387 359.045)"/><path stroke="#000" stroke-miterlimit="10" d="M533,374c-0.1,0.9-4.2,1-8.9-0.1c-4.8-1.2-8.3-3.2-8-4c0.3-0.9,4.2-0.3,8.8,0.8
					C529.4,371.8,533.1,373.1,533,374z"/><g><path fill="#efd5ca" d="M857.9,150.4c-7.1,4.9-7.6,15.3-8.1,23.6c-0.4,7.7-0.6,11.5,0,90.8c0,2.1,0,6.9,3.1,11.2
		c4.7,6.6,13.7,7.7,18,8.1c33.1,3.1,93.3-4.4,93.3-4.4s33.1-4.1,61-0.6c7.3,0.9,12.8,1.6,19.3,5c7.1,3.7,9,7.3,15.6,8.7
		c6.9,1.5,15.3-0.3,16.2-3.7c1-4-9.2-6.7-15.6-16.2c-5.9-8.8-5.6-19.4-4.4-27.4c-0.9-12.2-1.8-31.5-1.2-55.4
		c0.9-36.5,4.4-43.7-1.9-51c-6.3-7.4-15.2-6.1-98.9,2.5c-41.5,4.2-44.3,4.4-49.8,4.4c-11-0.2-22,1.8-33,1.9
		C865.9,147.9,861.7,147.8,857.9,150.4z"/><path fill="#ff4f03" stroke="#ff4f03" stroke-miterlimit="10" d="M1097.1,512.1c-0.5-0.8,4.8-4.7,9.4-11.1c4.6-6.4,6.6-12.6,7.5-12.4c0.4,0.1,0.5,1.8-0.2,4.5
					c-0.3,1.4-0.9,2.9-1.6,4.6c-0.8,1.7-1.8,3.4-3,5.2c-1.2,1.7-2.6,3.2-3.9,4.5c-1.3,1.3-2.7,2.3-3.8,3
					C1099,511.9,1097.3,512.4,1097.1,512.1z"/><path fill="#ff4f03" stroke="#ff4f03" stroke-miterlimit="10" d="M1114.1 488c-.2.2-1.3-.5-3.2-1.6-1-.6-2.1-1.3-3.5-2-.3-.2-.7-.4-1.1-.6-.2-.1-.4-.2-.6-.3l-.3-.1c-.1-.1-.1 0-.2-.1-.3-.1-.6-.3-.9-.3 0 .2 0 .4 0 .6l0 .3c0 .1 0 .1 0 .1l-.1.4c-.2 1.1-.5 2.3-.9 3.4-.7 2.3-1.8 4.7-3.2 7-1 1.6-2 3-2.8 4.4-.4.7-.7 1.4-.9 2-.2.7-.4 1.3-.4 1.9 0 1.2.4 2.4 1.1 3.3.7.8 1.5 1.2 2.3 1.2l-.6 2.1c-3.9-3.2-6.2-5.4-5.9-5.8.3-.4 3.1 1.2 7.3 3.9l2.5 1.6-3.1.5c-.8.1-1.7 0-2.5-.3-.8-.3-1.6-.8-2.1-1.5-1.2-1.3-1.9-3-2-5-.1-2 .6-3.8 1.4-5.5.8-1.7 1.9-3.1 2.8-4.6 1.3-2.1 2.3-4.2 3-6.3.4-1 .7-2.1 1-3.1l.1-.4c0-.2.1-.4.1-.6.1-.4.2-.9.3-1.3.1-.9.3-1.7.4-2.6 1.4.7 2.8 1.4 4 2.1l.4.3.3.2c.2.1.4.2.6.4.4.2.7.5 1 .7 1.3.9 2.4 1.9 3.3 2.6C1113.5 486.7 1114.3 487.8 1114.1 488zM1235.4 397.7c.3.2-1.4 4.2-6 9.6-2.3 2.7-5.3 5.6-9 8.4-3.7 2.8-8.3 5.5-13.8 6.7-5.5 1.2-11.3.3-15.4-2.5-2.1-1.4-3.7-3.3-4.7-5.3-1.1-1.9-1.6-3.9-1.8-5.8-.4-3.7.4-6.7 1.3-8.4.9-1.8 1.8-2.5 2-2.4.2.1-.3 1.1-.8 2.9-.5 1.8-.9 4.4-.2 7.6.3 1.6.9 3.2 1.9 4.8 1 1.6 2.3 3 4 4.1 3.5 2.2 8.3 2.9 13.1 1.9 4.8-1 9.1-3.5 12.7-6 3.7-2.5 6.7-5.2 9.1-7.5C1232.6 401 1235 397.4 1235.4 397.7zM1071.6 419.3c.3.3-.4 1.6-2 3.3-1.6 1.7-4.1 3.8-7.3 5.5-3.1 1.7-6.2 2.7-8.5 3.1-1.2.3-2.4.2-3.2-.3-.7-.5-.7-1-.6-1.2.2-.2.5 0 1-.1.5 0 1.1-.3 2.1-.7 2-1 4.8-2.2 7.7-3.8C1066.7 422.1 1071 418.6 1071.6 419.3zM1071.2 429.7c.3.3 0 1.2-1 2.4-.9 1.2-2.5 2.6-4.5 3.7-2 1.1-4 1.8-5.4 1.9-1.5.2-2.5 0-2.6-.4-.2-.9 2.9-2.3 6.4-4.4C1067.7 431 1070.5 429.1 1071.2 429.7z"/><path fill="#edc264" d="M1128.9,280.5c0-2.7,0.3-6.7,1.5-11.3c1.3-4.9,3.7-10.4,8.8-17c11.4-15,20.8-27.4,38.7-33.5
		c31-10.7,58.1,7.4,59.3,8.3c3.9,2.7,14.9,10.3,21.1,24.2c5.6,12.4,3.2,20.1,4.1,34.6c0.8,12.8,7.6,29.5,21.1,62.9
		c9.8,24.3,13.9,31.1,17.5,48c3.5,16.3,3.2,25.9,2.6,32c-1,10-2.7,26.5-15.5,37.7c-5.7,4.9-11.6,7.2-15.5,8.3c0.4-8.5,0-19.9-3.1-33
		c-1.5-6.3-4.3-17.8-11.9-30.4c-6.8-11.4-10.3-11.8-15.5-21.1c-7-12.5-6.5-22.2-8.3-32.5c-3.3-19.6-15.8-35.1-40.8-66
		c-23.2-28.7-33-32.4-39.7-31c-3.8,0.8-8.5,3.7-9.3,4.1C1136,269.6,1131.2,276.5,1128.9,280.5z"/><path fill="#e0af90" d="M1141.1 267c-2.1 17.2-.6 31.4 1.1 40.9 1.9 10.9 5 26.9 16.3 43.7 5.9 8.8 12.2 15 16.8 19.1 6.4-.7 12.7-1.5 19.1-2.2 1.7 2.3 4.1 6.3 5 11.8.6 3.4 1.5 9.3-1.7 14-2.7 3.9-5.9 3.5-6.7 6.7-.9 3.5 2 7.5 5 9.5.8.6 3.8 2.3 9.5 1.7 10.3-1.1 17.4-8.6 23-14.6 3-3.2 7-8 10.7-14.6-5.2-9.1-5.9-16.3-5.6-21.3.4-7 3.1-11.2 1.7-18.5-1.1-5.7-6.7-7.9-5.6-11.8.5-1.9 1.9-2 3.9-4.5 4.2-5.1 4-11.7 3.9-13.5 0-1.1-.4-11.7-5.6-13.5-2.9-1-4.5 1.7-9.5 2.2-4.9.5-8.8-1.4-11.8-2.8-12.4-6.1-16.4-22.2-16.8-24.1-3.8-1.4-9.5-4.2-15.1-9.5-7.9-7.5-11.1-16-12.3-20.2C1157.9 252.8 1149.5 259.9 1141.1 267zM989.6 451.7c3.1 4.1 8.5 10.1 16.6 14.8 6.9 4 12.3 5.1 26.5 8.7 6.5 1.6 16.5 4.2 29.1 7.7 9.4 7.4 18.8 14.8 28.2 22.2 2.3-1.3 8.8-5.5 12-13.7 1.6-4.1 1.8-7.8 1.7-10.3-2.6-1.5-6.4-4-10.3-7.7-6.6-6.4-7.7-10.7-12.8-17.1-5.5-6.9-11.2-10.5-18.8-15.4-10.4-6.7-18.4-9.2-24.8-10.3-5.3-.9-8.7-1.1-10.3.9-1.6 2-1 5.5 0 7.7 1.6 3.4 4.6 4.5 4.3 5.1-.5 1.1-8.9-3-19.7-3.7-2.9-.2-14.2-.9-15.7 3.3-.9 2.5 2 5.9 3.9 7.7-4.1-3.3-7.8-4.3-9.2-3C989.9 449 989.3 449.7 989.6 451.7zM959.1 369.3c1.9 2.1 5.3 5.4 10.1 8.6 7.8 5.2 14 6.4 31.1 11.6 3.9 1.2 10.1 3.1 17.8 5.6 6.3 10 12.6 20 19 29.9 2.9.2 8.4.1 14.5-2.7 8.2-3.7 12.4-10 13.9-12.4-6.1-7.4-11.4-13.2-15.1-17.2-12.6-13.5-15.2-14.2-17.2-20.1-1.1-3.3-2-8-6.2-12.1-1.6-1.5-2.9-2.3-5.6-3.9-6.4-3.7-8.7-3.3-16.9-6.8-6.8-2.9-8.6-4.6-10.1-3.6-2 1.4-1.3 6.7.9 10.4 2.8 4.6 7.7 5.9 7.4 6.5-.3.8-7.3-.3-15.4-3.9-9.2-4-12-7.8-16.3-6.5-2.9.9-5.5 3.7-5.6 6.5-.2 3.4 3.1 6.2 6.2 8.9 3.5 3 6.1 3.9 5.9 4.4C977.3 373.2 973.8 373 959.1 369.3zM1125.2 816.2c1.2 9.8 2.9 25.2 4.5 44.3 1.8 20.9 2.7 37.7 5.3 98.3.6 14.4 1.4 32.7 2.3 54 1.5.8 9 4.9 18 2.3 5.5-1.6 9-5.1 10.5-6.8 2.7-9.9 5.1-21.2 6.8-33.8 2.4-18.5 2-33.1 1.5-50.3-.7-24.6-2.4-27.5-2.3-44.3.2-19.1 2.6-34.5 4.5-44.3 3.9-8.8 3.2-12.9 1.5-15-3.5-4.5-12.2-1.6-26.3-1.5C1140.5 819.3 1131.5 817.7 1125.2 816.2zM1191.2 819.2c3.4 7.8 8.5 20.1 14.3 35.3 15.6 41.2 24.5 74.1 36 117 4.3 16 10.1 38.3 16.5 65.3 3.4.6 11.4 1.5 20.3-2.3 6.4-2.7 10.5-6.6 12.8-9-1.6-21.1-3.5-38.9-5.3-52.5-3.7-29.4-5.5-44.2-9.8-57-7.2-22-12.4-23.2-18.8-47.3-3.4-12.9-5.9-22.4-6.8-36-1.2-19 2-28.7-3-31.5-5.1-2.9-11.9 5.6-28.5 12C1207.6 817.5 1197.6 818.8 1191.2 819.2z"/><path fill="#ff4f03" d="M1122.6 628c-5.5 18.2-10.5 38.5-14.4 60.7-7.4 42.7-8.6 81-7.2 112.6 14.8 6.2 27.6 9.5 36.5 11.3 49.7 10.2 88.2-2 96.2-4.6 6.7-2.2 12.1-4.5 15.4-6-.1-27.8-.4-53.5-.9-76.8-.4-22.4-.8-36.4-3.7-55.1-2.6-16.5-6.1-30-8.7-39.1-1.4-1.2-2.7-2.4-4.1-3.6-2 2.7-5.1 6.2-9.3 9.8-20.2 17.3-44.9 16.6-48.3 16.5C1143.7 652.4 1125.6 631.5 1122.6 628zM1071.6 1103.2c-1.2-4.5 10.6-11.5 17.4-14.7 3.3-1.5 6.2-2.5 8.1-3.1 1.2.9 3.2 2.3 5.8 3.5 12.4 5.6 25.6.4 35.5-3.5 6.4-2.5 16.3-7.3 26.6-16.2 1 5.5 2.1 11.1 3.1 16.6-3 1.8-7.4 4.2-13.1 6.6-8.1 3.3-11.8 3.6-26.6 6.9-13 2.9-26.3 4.6-39.3 7.7-1 .2-5.3 1.3-10.4 0C1076 1106.5 1072.2 1105.5 1071.6 1103.2zM1237 1121.4c-5.1 4.6-9.6 7.7-12.7 9.6-5.8 3.6-9.9 5.1-10 8.1-.2 3 3.7 5.4 4.2 5.8.9.6 4.2 2.4 11.2 1.2 8.5-1.5 14.8-6.2 18.5-9.6 6.5-.4 12.1-1.3 16.6-2.3 12-2.7 11.6-5 28.1-10.4 9.4-3.1 13.1-3.5 15-7.3 1.2-2.3-.1-2.4.4-13.1.2-4.5.6-7.9-1.2-12-.7-1.6-1.5-3.5-3.1-3.9-2.4-.5-4.8 3.2-6.9 5.8-2.4 2.9-7 5.5-16.2 10.8C1264 1113.8 1238.5 1120.9 1237 1121.4z"/><path fill="#edd25f" d="M912.7,193.2c4.5,3.5,9.1,7.2,13.7,10.9c3.3,2.7,6.6,5.4,9.8,8c-1.1,4.1-2.2,8.1-3.4,12.2
		c-1.6,5.3-3.3,10.5-4.9,15.8c1.1-0.3,2.8-0.8,4.8-1.7c5.3-2.2,6.9-4.3,11.1-6c1.7-0.7,4.2-1.4,7.6-1.6c4.5,3.2,10.9,6.8,19,9.1
		c2.8,0.8,5.5,1.3,8,1.7c-1.7-9.4-3.4-18.8-5-28.2c7.1-7.3,14.3-14.6,21.4-21.9c-2.1-0.7-5.3-1.5-9.2-2.1c-9-1.3-11.2,0.6-15.6-1.3
		c-3.7-1.6-6-5.4-10.5-13c-2.3-3.9-5-8.9-7.6-15.1c-1.6,5-3.3,10.1-4.9,15.2c-1.5,4.7-3,9.3-4.4,14c-6.6,1.1-13.3,2.2-19.9,3.4
		C919.4,192.7,916,192.9,912.7,193.2z"/><path stroke="#000" stroke-miterlimit="10" d="M1217.9 348.9c.2.1-1.1 2-3.7 5.1-2.6 3.1-6.5 7.6-12.4 11.9-3 2.1-6.5 4.2-10.7 5.7-4.1 1.4-8.8 2.3-13.9 2-2.5-.2-5.1-.7-7.5-1.7-2.5-.9-4.8-2.3-7-4-4.3-3.3-7.8-7.8-10.6-12.6-5.6-9.7-9.5-19.5-12.2-28.8-2.7-9.2-4.2-17.8-4.9-25-.7-7.2-.7-13.1-.5-17.1.2-4 .6-6.3.8-6.2.3 0 .3 2.2.5 6.2.2 4 .5 9.8 1.5 16.9 1 7.1 2.7 15.4 5.5 24.4 2.8 9 6.8 18.6 12.1 28 2.8 4.6 6 8.8 9.8 11.8 3.8 3.1 8.3 4.8 12.8 5.2 4.5.4 8.9-.3 12.7-1.5 3.9-1.2 7.3-3.1 10.2-5 5.9-3.9 9.9-8.1 12.8-10.9C1216.2 350.3 1217.7 348.7 1217.9 348.9zM1197.7 394.1c-.9-.4.7-5.3-.2-11.4-.7-6.1-3.4-10.6-2.6-11.1.3-.3 1.5.6 2.8 2.4.7.9 1.3 2.1 1.8 3.5.5 1.4 1 3 1.2 4.8.2 1.7.2 3.4 0 4.9-.2 1.5-.5 2.8-.9 3.9C1199 393.2 1198.1 394.2 1197.7 394.1zM1246.4 398.5c-.3.2-2.6-2.3-5.3-7.1-.3-.6-.7-1.2-1-1.9-.4-.7-.7-1.4-1-2.1-.7-1.4-1.4-3.1-2-4.7-1.3-3.4-2.4-7.2-3.3-11.4-.8-4.1-1.2-8.1-1.3-11.7 0-1.8-.1-3.5.1-5.2 0-.8.1-1.6.1-2.3.1-.7.2-1.5.2-2.1.7-5.4 1.8-8.7 2.2-8.6.5.1.2 3.4.1 8.7 0 .7 0 1.4 0 2.1 0 .7 0 1.5.1 2.3 0 1.6.1 3.2.2 5 .3 3.5.8 7.3 1.5 11.3.8 4 1.8 7.7 2.9 11 .6 1.7 1.1 3.2 1.7 4.7.3.7.5 1.4.8 2.1.3.7.6 1.3.8 1.9C1245.2 395.2 1246.8 398.2 1246.4 398.5zM1218.4 329.9c.1-.2.9.1 2.2.4 1.3.3 3.2.4 5.4-.3 1.1-.3 2.2-.9 3.3-1.7 1-.8 2.1-1.8 2.9-3.1 1.7-2.5 2.9-5.8 3.4-9.4.6-3.6.2-7-1.2-9.5-1.4-2.5-3.8-4.1-5.9-4.2-1.1-.1-2.1.1-2.9.4-.8.3-1.5.7-2 1.2-1 .8-1.3 1.6-1.6 1.5-.2 0-.3-1 .6-2.3.9-1.3 2.8-2.9 5.8-3.1 3-.2 6.5 1.7 8.5 4.9 1 1.6 1.7 3.5 2 5.5.3 2 .2 4-.1 6.1-.6 4-2 7.8-4.2 10.7-1.1 1.5-2.4 2.7-3.8 3.5-1.4.9-2.9 1.4-4.2 1.7-2.7.5-5.1 0-6.4-.7C1218.8 330.8 1218.3 330 1218.4 329.9z"/><path stroke="#000" stroke-miterlimit="10" d="M1144.1,299.6c-0.4,0.2-1.1-0.3-1.7-1.3c-0.6-1-1.1-2.6-1.2-4.4c-0.1-1.8,0.3-3.4,0.8-4.5
					c0.5-1.1,1.1-1.6,1.6-1.5c0.9,0.3,0.7,2.9,0.9,5.8C1144.5,296.7,1144.9,299.2,1144.1,299.6z"/><ellipse cx="1172.4" cy="300.5" stroke="#000" stroke-miterlimit="10" rx="1.6" ry="7.7"/><path stroke="#000" stroke-miterlimit="10" d="M1150.7 280c-.4.2-1.1-.4-2.1-1.1-1-.6-2.5-1.3-4.1-1.4-1.6 0-3.1.6-4.2 1.1-1.1.6-1.8 1.2-2.2.9-.4-.2-.4-1.3.6-2.6 1-1.3 3.1-2.8 5.8-2.7 2.7.1 4.8 1.7 5.7 3C1151.2 278.8 1151.1 279.9 1150.7 280zM1177.7 288.6c-.4.1-1-.3-1.8-1-.7-.7-1.7-1.5-2.9-2.2-1.2-.7-2.4-1.2-3.3-1.6-.9-.4-1.6-.7-1.7-1.1-.1-.4.6-1 1.9-1.2 1.3-.2 3.1.1 4.8 1.1 1.7 1 2.7 2.6 3.1 3.8C1178.3 287.6 1178.1 288.5 1177.7 288.6zM1158.4 319.5c0 .2-.3.4-.9.5-.6.1-1.4 0-2.4-.4-1.9-.8-4.2-3-4.8-6.2-.3-1.6-.2-3.1.2-4.3.3-1.3.8-2.3 1.4-3.1 1.1-1.6 2.1-2.2 2.5-2 .4.3 0 1.4-.4 2.9-.4 1.6-.8 3.7-.4 5.9.4 2.1 1.7 3.8 2.8 4.8C1157.4 318.6 1158.4 319 1158.4 319.5z"/><path fill="none" stroke="#000" stroke-miterlimit="10" d="M1162.6,333.9"/><path stroke="#000" stroke-miterlimit="10" d="M1180.9 331.4c.4.2.1 1.9-1.5 4.1-.2.3-.4.6-.7.9-.2.3-.5.6-.8.8-.5.6-1.2 1.1-1.9 1.7-1.5 1.1-3.3 2-5.3 2.7-2 .6-4 .9-5.8.8-.9-.1-1.8-.1-2.6-.3-.4-.1-.8-.1-1.1-.2-.4-.1-.7-.2-1-.3-2.6-.9-3.8-2.2-3.6-2.5.2-.4 1.7 0 4.1.3.3 0 .6.1.9.1.3 0 .7 0 1 0 .7.1 1.4 0 2.2 0 1.5-.1 3.2-.4 4.9-.9 1.7-.6 3.2-1.3 4.6-2 .6-.4 1.3-.8 1.8-1.2.3-.2.6-.4.8-.6.2-.2.5-.4.7-.6C1179.5 332.5 1180.5 331.2 1180.9 331.4zM1133.1 278.1c.2.1-.1 1.2-1.1 2.9-.5.9-1.2 1.9-2.2 2.9-.5.5-1 1.1-1.9 1.6-.4.3-1 .4-1.6.5-.6 0-1.2-.1-1.7-.4-1-.5-1.8-1.3-2.4-2.3-.6-1-1-2-1.2-3.1-.5-2.2-.4-4.6.1-7 .5-2.4 1.3-4.7 2.3-7 .5-1.2 1-2.3 1.5-3.5.6-1.2 1.1-2.4 1.8-3.5 5.1-9.5 11.8-16.7 17.2-21.1 5.4-4.4 9.3-6.3 9.6-5.9.3.4-3.2 2.9-8 7.7-4.8 4.7-11 11.8-15.9 20.9-.6 1.1-1.2 2.3-1.7 3.4-.5 1.1-1.1 2.2-1.5 3.4-.9 2.2-1.8 4.4-2.3 6.5-.5 2.1-.7 4-.4 5.8.1.9.4 1.7.8 2.4.3.7.8 1.2 1.3 1.5.5.3.9.3 1.3.1.5-.2 1-.7 1.5-1.1 1-.9 1.8-1.7 2.4-2.4C1132.2 278.8 1132.9 278 1133.1 278.1z"/><path stroke="#000" stroke-miterlimit="10" d="M1169.1 244c.4.9-10.5 6.3-21.1 16.6-10.7 10.2-16.4 21-17.3 20.5-.4-.2.6-3.1 3-7.5.6-1.1 1.3-2.3 2.1-3.5.8-1.2 1.7-2.5 2.7-3.8 2-2.6 4.4-5.4 7.2-8 2.8-2.7 5.6-5 8.3-6.9 1.4-.9 2.6-1.8 3.9-2.6 1.2-.8 2.4-1.4 3.6-2C1166 244.5 1169 243.6 1169.1 244zM1197.6 275.2c-.1.4-2.6.4-6.5-.8-1-.3-2-.7-3.1-1.1-1.1-.4-2.2-1-3.4-1.7-2.3-1.3-4.8-3-7.2-5-2.3-2.1-4.3-4.3-5.9-6.5-.8-1.1-1.5-2.2-2.1-3.2-.6-1-1.1-2-1.5-3-1.6-3.7-2-6.2-1.6-6.4.5-.2 1.5 2 3.6 5.3.5.8 1.1 1.7 1.8 2.6.6.9 1.4 1.8 2.2 2.8 1.6 1.9 3.5 3.9 5.7 5.9 2.2 1.9 4.4 3.5 6.5 4.9 1.1.6 2.1 1.3 3.1 1.8 1 .6 1.9 1 2.8 1.4C1195.4 273.9 1197.7 274.7 1197.6 275.2zM1223.4 299.7c.1.2-.4.7-1.5 1.2-1.1.6-2.8 1.1-4.9 1.2-2.2.1-4.8-.2-7.5-1.2-2.7-1-5.4-2.7-7.8-5-2.3-2.3-4.1-4.9-5.3-7.4-1.3-2.5-2.1-4.8-2.7-6.8-1.2-4-1.4-6.5-1-6.6.5-.1 1.5 2.2 3.2 5.8 1.7 3.6 4.1 8.6 8.2 12.7 2 2 4.4 3.5 6.6 4.6 2.3 1 4.5 1.6 6.4 1.7C1220.9 300.2 1223.2 299.2 1223.4 299.7zM1255.3 244.5c-.2.1-.8-1.2-2.1-3.4-1.3-2.1-3.5-5.1-6.8-8.1-3.3-3-7.8-5.9-13.2-8.2-5.4-2.3-11.8-4-18.6-5.3-3.4-.7-6.7-1.3-9.9-1.7-3.2-.4-6.3-.7-9.3-.8-6-.3-11.3.2-15.7 1-8.9 1.6-13.9 4.4-14.1 3.9-.1-.2 1-1.1 3.3-2.3 2.3-1.3 5.8-2.7 10.3-3.8 2.3-.6 4.8-1 7.5-1.3 2.7-.3 5.7-.5 8.7-.4 3.1 0 6.3.2 9.6.6 3.3.4 6.7.9 10.2 1.6 6.9 1.4 13.5 3.2 19.2 5.8 5.7 2.5 10.4 5.9 13.6 9.3 3.3 3.4 5.3 6.7 6.3 9.2C1255.3 242.9 1255.5 244.4 1255.3 244.5zM1278.5 475.9c-.2-.2 2.6-2.1 6.8-6.3 2-2.2 4.4-4.9 6.7-8.4 2.3-3.5 4.5-7.8 6.3-12.7 1.8-4.9 3.2-10.6 3.8-16.7.3-3.1.5-6.3.4-9.6 0-3.3-.3-6.7-.7-10.2-.8-6.9-2.4-14.1-4.5-21.4-2.2-7.3-4.9-14.7-8-22.3-6.2-15.1-12.8-29.2-17.3-42.8-4.6-13.5-7.4-26.1-9.1-36.7-1.7-10.6-2.3-19.3-2.5-25.3-.2-6 0-9.3.3-9.3.2 0 .5 3.3 1 9.3.6 5.9 1.5 14.5 3.5 25 2 10.5 5 22.8 9.7 36.1 4.6 13.3 11.3 27.3 17.5 42.5 3.1 7.6 5.9 15.1 8.1 22.6 2.1 7.5 3.7 14.9 4.5 22 .4 3.6.6 7.1.6 10.5 0 3.4-.2 6.7-.6 9.9-.8 6.4-2.4 12.2-4.4 17.2-2 5.1-4.4 9.4-6.9 12.9-2.5 3.5-5.1 6.3-7.3 8.3-1.1 1-2.1 1.9-3.1 2.6-.9.7-1.7 1.3-2.4 1.7C1279.3 475.6 1278.6 476 1278.5 475.9zM1221.8 319.9c-.4.1-1.1-.8-1.4-2.4-.1-.8-.1-1.8.1-3 .2-1.1.6-2.3 1.2-3.4.6-1.1 1.5-2.1 2.3-2.8.9-.7 1.7-1.3 2.5-1.6 1.6-.6 2.7-.5 2.8-.1.1.4-.6 1.1-1.6 2-.5.5-1 1.1-1.6 1.7-.5.7-1.1 1.4-1.6 2.3-.5.9-.9 1.7-1.2 2.5-.3.8-.5 1.6-.7 2.2C1222.4 318.8 1222.3 319.8 1221.8 319.9z"/><path stroke="#000" stroke-miterlimit="10" d="M1225.6 321c-.5 0-.8-.4-1.2-.7-.4-.3-.7-.7-1.1-1.1-.4-.4-.8-.7-1.1-1.1-.3-.4-.7-.7-.8-1.2-.1-.4.3-.9 1.2-1.1.8-.2 2.1.1 3 1 .9.9 1.3 2.1 1.1 2.9C1226.6 320.7 1226.1 321.1 1225.6 321zM1240.1 350.3c-.7.6-4.5-2.9-7.3-8.4-2.9-5.5-3.5-10.6-2.7-10.8.9-.3 2.9 4.2 5.6 9.3C1238.4 345.6 1240.8 349.7 1240.1 350.3z"/><ellipse cx="1181.7" cy="332.3" stroke="#000" stroke-miterlimit="10" rx="3.7" ry="1.6" transform="rotate(47.695 1181.678 332.303)"/><path stroke="#000" stroke-miterlimit="10" d="M1235.7 620.1c-.1 0-.4-.7-.8-2.1-.2-.7-.4-1.6-.6-2.6-.1-.5-.2-1.1-.3-1.7-.1-.6-.1-1.3-.2-2-.6-5.5.2-13.7 3.2-23.1 2.9-9.5 7.9-20.1 12.6-32.1 4.8-12 9.6-25.3 13.3-39.7 3.8-14.4 5.9-28.4 6.4-41.2.5-12.8-.7-24.4-2.5-33.9-1.9-9.5-4.5-17-6.4-22.1-.5-1.3-1-2.4-1.3-3.4-.4-1-.8-1.8-1.1-2.4-.6-1.3-.8-2.1-.7-2.1.1-.1.5.6 1.3 1.8.4.6.8 1.4 1.3 2.3.5.9 1 2 1.6 3.3 2.3 5 5.4 12.4 7.5 22.1 2.2 9.6 3.6 21.4 3.3 34.5-.3 13.1-2.4 27.4-6.2 41.9-3.8 14.6-8.7 28-13.7 40-4.9 12-10.1 22.5-13.2 31.7-3.2 9.2-4.3 17-4.1 22.4C1235.2 617.1 1236 620 1235.7 620.1zM1157 510.9c-.2.2-1.3-.7-3.3-2.3-1-.7-2.3-1.7-3.7-2.7-.7-.5-1.5-1-2.4-1.6-.8-.6-1.8-1.1-2.7-1.7-3.9-2.3-8.7-4.8-14.1-7.2-5.5-2.5-11.6-5.1-17.9-8.2-3.2-1.5-6.2-3.2-9.1-4.9-1.4-.9-2.8-1.8-4.1-2.7-1.3-.9-2.6-1.9-3.8-2.8-4.8-3.9-8.6-7.9-11.5-11.6-2.9-3.6-4.8-6.9-6.1-9.1-1.2-2.3-1.7-3.6-1.5-3.7.5-.3 3.3 4.7 9.3 11.4 3 3.4 6.9 7.1 11.6 10.7 1.2.9 2.4 1.8 3.7 2.6 1.3.9 2.7 1.7 4 2.5 2.8 1.6 5.7 3.2 8.9 4.8 6.2 3.1 12.3 5.7 17.7 8.4 5.5 2.7 10.3 5.4 14.1 8 .9.7 1.9 1.3 2.7 1.9.8.7 1.6 1.3 2.3 1.9 1.4 1.2 2.5 2.3 3.5 3.2C1156.3 509.6 1157.2 510.7 1157 510.9zM1218.3 427c0 .1-.3.3-.9.7-.6.3-1.6.7-2.8 1.3-2.4 1.1-5.8 2.9-9.7 5.5-3.9 2.7-8.3 6.2-12.7 10.6-4.5 4.4-9 9.6-13.5 15.3-4.5 5.7-8.8 11.3-12.8 16.2-4.1 4.9-8 9.2-11.5 12.5-1.8 1.7-3.4 3.1-4.9 4.3-1.4 1.2-3 2.3-4.3 2.7-1.4.5-2.6.4-3.4 0-.7-.3-.9-.7-.9-.8.1-.1.4.1 1.1.2.6.1 1.6 0 2.7-.6.6-.3 1.1-.7 1.7-1.1.6-.5 1.2-1.1 1.9-1.7 1.4-1.3 2.9-2.8 4.5-4.6 3.3-3.5 6.9-7.8 10.8-12.8 3.9-5 8-10.6 12.6-16.4 4.6-5.8 9.3-11.1 14-15.5 4.7-4.4 9.4-7.9 13.6-10.4 4.2-2.5 7.9-4 10.5-4.8 1.3-.4 2.3-.6 3-.8C1217.9 426.9 1218.3 426.9 1218.3 427zM1157.9 538.4c0 .4-6.3.1-16-2.6-4.8-1.4-10.5-3.4-16.5-6.3-6-2.8-12.4-6.4-18.8-10.6-12.7-8.5-23.1-17.7-30.4-24.4-7.3-6.8-11.5-11.2-11.3-11.5.3-.3 5.1 3.5 12.8 9.8 7.7 6.3 18.2 15.1 30.7 23.4 6.3 4.1 12.4 7.7 18.3 10.6 5.8 2.9 11.2 5.1 15.9 6.8C1151.9 536.8 1157.9 537.9 1157.9 538.4zM1244.1 475.8c.2.5-5.8 2-14 7-2.1 1.3-4.2 2.7-6.5 4.4-2.3 1.7-4.6 3.6-7 5.8-4.8 4.2-9.7 9.3-14.7 14.8-5.1 5.5-9.9 10.7-14.6 15.3-4.7 4.5-9.3 8.3-13.4 11.1-4.1 2.8-8 4.5-10.7 5-2.8.5-4.4.2-4.4 0 0-.3 1.5-.4 4-1.3 2.5-.9 5.9-2.7 9.7-5.6 3.8-3 8.1-6.8 12.6-11.4 4.5-4.6 9.2-9.9 14.3-15.3 5.1-5.5 10.1-10.6 15.2-14.8 2.5-2.1 5-4 7.4-5.7 2.4-1.7 4.7-3.1 6.9-4.2 4.4-2.4 8.2-3.7 10.9-4.4 1.3-.4 2.4-.6 3.1-.6C1243.7 475.7 1244 475.7 1244.1 475.8zM1139.2 485.9c-.4 0-1.1-3.8-1.2-10 0-1.6 0-3.3.2-5.1.1-1.8.3-3.8.5-5.8.6-4.1 1.4-8.6 2.7-13.2 1.3-4.6 2.9-8.9 4.6-12.6.9-1.9 1.7-3.7 2.6-5.3.8-1.6 1.7-3.1 2.5-4.4 3.3-5.3 5.9-8.2 6.2-7.9.4.3-1.5 3.6-4.2 9.1-.7 1.4-1.4 2.9-2.1 4.5-.8 1.6-1.5 3.4-2.2 5.2-1.5 3.7-2.9 7.9-4.2 12.4-1.2 4.5-2.2 8.8-2.9 12.7-.3 2-.6 3.9-.8 5.6-.2 1.8-.4 3.4-.5 4.9C1139.8 482 1139.7 485.8 1139.2 485.9zM1118.1 615.9c-.8-.1.1-17.8 5.5-38.9 5.3-21.1 12.9-37.2 13.7-36.8.9.4-5.3 16.7-10.5 37.6C1121.4 598.7 1119.1 616.1 1118.1 615.9zM1257.1 870.9c-.1 0-.4-.8-.9-2.5-.2-.8-.5-1.9-.9-3.1-.2-.6-.4-1.3-.5-2-.2-.7-.3-1.5-.5-2.3-1.6-6.4-3.3-15.9-4.7-27.7-1.4-11.8-2.2-25.9-2.4-41.6-.2-15.7.1-32.9.3-50.9.2-18-.1-35.2-1.3-50.7-1.2-15.5-3.2-29.4-5.9-40.9-1.3-5.7-2.7-10.9-4-15.4-.7-2.2-1.4-4.3-2-6.2-.7-1.9-1.3-3.6-1.9-5.2-.3-.8-.5-1.5-.8-2.2-.3-.7-.5-1.3-.8-1.9-.5-1.2-.8-2.2-1.2-3-.6-1.6-.9-2.5-.8-2.6.1 0 .6.7 1.4 2.3.4.8.9 1.7 1.5 2.9.3.6.6 1.2.9 1.9.3.7.6 1.4.9 2.2.6 1.5 1.4 3.2 2.1 5.1.7 1.9 1.4 4 2.2 6.2 1.5 4.5 3.1 9.6 4.5 15.4 3 11.5 5.2 25.5 6.6 41.2 1.4 15.6 1.8 32.9 1.6 51-.2 18.1-.6 35.2-.6 50.9 0 15.6.6 29.6 1.7 41.4 1.1 11.7 2.4 21.2 3.6 27.7.1.8.3 1.6.4 2.3.1.7.3 1.4.4 2 .2 1.3.4 2.3.6 3.2C1257.1 869.9 1257.2 870.8 1257.1 870.9zM1089.7 801.9c-.2 0-.5-2.5-.7-7.1-.1-1.2-.1-2.4-.2-3.8 0-1.4-.1-2.9-.1-4.6-.1-3.3-.2-7-.1-11.1 0-2.1 0-4.2.1-6.5 0-2.3.1-4.6.2-7 .1-4.9.5-10 .8-15.5.8-10.9 1.9-22.9 3.7-35.3 1.8-12.5 3.9-24.3 6.1-35 1.2-5.3 2.3-10.4 3.5-15.1.6-2.4 1.1-4.6 1.7-6.8.6-2.2 1.2-4.3 1.7-6.3 1.1-4 2.2-7.6 3.1-10.7.5-1.6.9-3 1.4-4.4.5-1.3.9-2.5 1.2-3.6 1.5-4.4 2.5-6.7 2.7-6.7s-.3 2.6-1.5 7c-.3 1.1-.6 2.4-1 3.7-.3 1.4-.7 2.8-1.1 4.4-.8 3.2-1.7 6.8-2.7 10.8-.5 2-1 4.1-1.5 6.3-.5 2.2-1 4.5-1.5 6.8-1.1 4.7-2.1 9.8-3.2 15.1-2.1 10.7-4.1 22.4-5.9 34.8-1.7 12.4-3 24.3-3.9 35.1-.4 5.4-.8 10.6-1.1 15.4-.1 2.4-.3 4.7-.4 7-.1 2.2-.2 4.4-.3 6.4-.2 4.1-.3 7.8-.4 11.1-.1 1.6-.1 3.2-.2 4.6 0 1.4-.1 2.7-.1 3.8C1090.1 799.3 1089.9 801.8 1089.7 801.9zM1231.4 809.6c.1.2-1.8 1-5.1 2.2-.8.3-1.8.6-2.8 1-1 .3-2.2.7-3.4 1-2.5.7-5.2 1.6-8.4 2.3-1.6.4-3.2.8-4.9 1.2-1.7.4-3.5.7-5.4 1.1-3.7.8-7.7 1.3-11.9 1.9-8.4 1-17.8 1.7-27.6 1.7-9.8-.1-19.2-.8-27.6-1.9-4.2-.6-8.2-1.2-11.9-2-1.9-.4-3.7-.7-5.4-1.1-1.7-.4-3.3-.8-4.9-1.2-3.1-.7-5.9-1.6-8.3-2.4-1.2-.4-2.4-.7-3.4-1.1-1-.4-2-.7-2.8-1-3.4-1.2-5.2-2-5.1-2.3.1-.2 2 .2 5.5 1 .9.2 1.8.5 2.9.7 1.1.2 2.2.5 3.4.8 2.5.6 5.3 1.3 8.4 1.9 1.6.3 3.2.6 4.9 1 1.7.3 3.5.6 5.3.9 3.7.7 7.6 1.1 11.8 1.7 8.3.9 17.6 1.6 27.3 1.7 9.7 0 18.9-.6 27.3-1.5 4.2-.5 8.1-1 11.8-1.6 1.8-.3 3.6-.5 5.3-.9 1.7-.3 3.3-.6 4.9-1 3.1-.5 5.9-1.3 8.4-1.8 1.2-.3 2.4-.5 3.4-.8 1.1-.3 2-.5 2.9-.7C1229.4 809.8 1231.3 809.4 1231.4 809.6zM1262.9 1079.2c-.2 0-1.2-3.6-2.8-10.1-.4-1.6-.8-3.5-1.3-5.5-.5-2-1.1-4.1-1.6-6.5-1.2-4.6-2.5-9.9-4-15.8-.8-2.9-1.6-6-2.4-9.1-.8-3.2-1.8-6.5-2.7-9.9-1.8-6.8-4-14.1-6.2-21.8-4.5-15.3-9.6-32-15.2-49.6-11.2-35-21.7-66.7-28.9-89.7-3.6-11.5-6.5-20.8-8.3-27.3-1.9-6.5-2.8-10.1-2.6-10.2.2-.1 1.6 3.4 3.8 9.8 2.2 6.4 5.4 15.6 9.3 27 7.8 22.8 18.6 54.3 29.8 89.4 5.6 17.6 10.6 34.4 15 49.7 2.1 7.7 4.2 15 5.9 21.9.9 3.4 1.8 6.8 2.5 10 .8 3.2 1.5 6.3 2.2 9.2 1.4 5.9 2.6 11.2 3.6 15.9.5 2.3 1 4.5 1.4 6.5.4 2 .7 3.9 1 5.5C1262.5 1075.5 1263.1 1079.1 1262.9 1079.2z"/><path stroke="#000" stroke-miterlimit="10" d="M1303.4 1085.4c-.2.1-1.3-2.9-3.2-8.3-.8-2.7-1.8-6.1-2.8-10.1-.9-4-2.1-8.5-3-13.5-2-10.1-3.8-22.2-5.3-35.6-1.6-13.5-2.9-28.3-4.7-43.8-1.8-15.5-4.1-30.1-7.2-43.2-3-13.1-6.7-24.7-10.2-34.3-3.5-9.6-6.8-17.2-9.1-22.4-2.3-5.2-3.7-8.1-3.5-8.2.2-.1 1.9 2.6 4.6 7.6 2.7 5.1 6.3 12.6 10.1 22.1 3.8 9.6 7.7 21.2 11 34.4 3.2 13.2 5.6 28 7.5 43.5 1.8 15.5 3 30.4 4.4 43.8 1.4 13.4 2.9 25.5 4.6 35.6.8 5 1.8 9.5 2.5 13.5.9 4 1.7 7.4 2.3 10.1C1302.9 1082.3 1303.6 1085.4 1303.4 1085.4zM1131.7 1053.6c-.2 0-.6-3.3-1.2-9.3-.5-6-1.2-14.7-2-25.4-1.6-21.5-3.7-51.2-6.1-84-2.4-32.8-4.5-62.5-6.1-84-.8-10.7-1.3-19.5-1.7-25.5-.3-6-.4-9.4-.2-9.4.2 0 .7 3.3 1.5 9.3.7 6 1.6 14.7 2.7 25.4 2.1 21.5 4.7 51.1 7.1 83.9 2.4 32.8 4.1 62.5 5.2 84.1.5 10.8.9 19.5 1 25.5C1132 1050.2 1131.9 1053.6 1131.7 1053.6zM1163.9 1054.6c-.1 0-.2-.8-.4-2.4-.1-1.6-.3-3.8-.4-6.8-.2-5.9.1-14.5 1.1-25 1-10.5 2.8-23 4.6-36.8.9-6.9 1.8-14.1 2.5-21.6.7-7.5 1-15.3 1.1-23.3.2-16-.4-31.3-.6-45.3-.2-14 0-26.6 1-37.1.9-10.6 2.5-19 3.8-24.8 1.4-5.7 2.5-8.8 2.7-8.8.2.1-.4 3.3-1.4 9-.9 5.8-2.1 14.2-2.7 24.7-.6 10.5-.6 23-.3 36.9.4 13.9 1.1 29.2.9 45.4-.2 8.1-.5 16-1.2 23.6-.7 7.6-1.7 14.9-2.7 21.8-2 13.8-4 26.2-5.3 36.6-1.3 10.4-1.9 18.9-2.1 24.8-.2 2.9-.2 5.2-.3 6.8C1164.1 1053.8 1164 1054.6 1163.9 1054.6zM1288.8 1029.5c.3.3-1.2 2-4.2 4-.8.5-1.6 1-2.5 1.5-.9.5-2 .9-3.1 1.4-2.2.8-4.7 1.6-7.5 2-2.7.4-5.3.4-7.7.3-1.2-.1-2.3-.2-3.3-.5-1-.2-2-.4-2.8-.7-3.4-1-5.3-2.3-5.1-2.7.2-.5 2.3 0 5.6.4.8.1 1.7.2 2.7.3 1 .1 2 .1 3.1.1 2.2 0 4.6-.1 7.1-.5 2.5-.4 4.8-1 6.9-1.6 1-.3 2-.7 3-1 .9-.3 1.8-.7 2.5-1C1286.6 1030.1 1288.5 1029.1 1288.8 1029.5zM1211.9 1136.5c-.2-.1.2-1.2 1.3-3 1.1-1.8 3-4.2 5.6-6.9 5.2-5.3 12.5-12.4 20.8-20.1 4.1-3.8 8.1-7.5 11.7-10.7 1.8-1.6 3.6-3.2 5.2-4.6.8-.7 1.6-1.4 2.4-2.1.7-.6 1.2-1.2 1.3-1.6.1-.4-.1-1-.6-1.8-.2-.4-.4-.8-.6-1.2-.1-.4-.2-.9-.3-1.3-.2-1.7.2-3.1.7-4.1.5-1 1.2-1.6 1.7-2 .5-.3.8-.4.9-.3.2.2-.8.9-1.4 2.7-.2.9-.4 2.1-.1 3.3.1.3.2.6.3.9.1.3.3.6.5.9.2.3.5.7.7 1.2.2.5.4 1.2.3 1.9-.1.7-.4 1.3-.8 1.8-.4.5-.8.9-1.1 1.3-.7.7-1.5 1.4-2.2 2.2-1.6 1.5-3.2 3.1-5 4.8-3.5 3.4-7.4 7.1-11.5 10.9-8.2 7.7-15.8 14.5-21.4 19.3-2.7 2.4-4.8 4.5-6.2 6C1212.8 1135.8 1212.1 1136.7 1211.9 1136.5zM1308.4 1115.4c.1.2-.9 1.2-3 3.1-1 .9-2.5 1.8-4.1 3-.8.6-1.7 1.1-2.7 1.7-1 .6-2 1.2-3.1 1.7-4.3 2.4-9.8 4.6-16 6.6-6.2 2.1-13.1 3.9-20.2 5.8-7.2 1.9-13.9 3.8-19.9 6-1.5.6-3 1.1-4.4 1.6-1.4.6-2.8 1.1-4.2 1.6-2.8 1-5.6 1.6-8.2 1.6-2.7 0-5-.9-6.7-2.1-1.7-1.2-2.9-2.6-3.6-3.9-.7-1.3-.9-2.4-.9-3.2 0-.8.1-1.1.2-1.1.3 0 .3 1.6 1.8 3.7.7 1 1.9 2.1 3.4 3 1.6.8 3.5 1.5 5.8 1.3 2.3-.1 4.7-.8 7.3-1.8 1.3-.5 2.6-1.1 4-1.7 1.4-.6 2.9-1.2 4.4-1.8 6.1-2.4 12.9-4.4 20.1-6.3 7.2-1.9 14-3.6 20.2-5.5 6.1-1.9 11.5-3.8 15.9-5.8C1303.3 1118.8 1308 1114.9 1308.4 1115.4zM1307.9 1114.4c-.9-.2.1-6.3-.8-13.7-.8-7.4-3.3-13-2.5-13.5.4-.2 1.5 1 2.8 3.3.6 1.2 1.2 2.6 1.8 4.3.5 1.7.9 3.5 1.2 5.5.5 4 .1 7.7-.5 10.2C1309.1 1113.1 1308.3 1114.5 1307.9 1114.4z"/><path stroke="#000" stroke-miterlimit="10" d="M1162.2 1010.9c.2.3-1.2 1.8-4 3.3-.7.4-1.5.8-2.4 1.1-.9.4-1.8.7-2.9.9-2.1.5-4.4.9-6.9 1-2.5 0-4.8-.2-6.9-.7-1-.3-2-.5-2.9-.8-.9-.3-1.7-.6-2.4-1-2.9-1.4-4.4-2.8-4.2-3.1.2-.4 2.1.2 4.9 1 .7.2 1.5.4 2.4.5.8.2 1.8.3 2.7.5 1.9.3 4.1.4 6.3.4 2.2-.1 4.4-.3 6.3-.6 1-.2 1.9-.4 2.7-.6.9-.2 1.6-.4 2.3-.6C1160.2 1011.2 1162 1010.5 1162.2 1010.9zM1068.5 1097.7c-.3-.3 2.6-3.5 7.9-8 5.3-4.5 12.9-10.3 22-15.8 4.5-2.7 9-5.2 13.1-7.2 2.1-1 4-1.9 5.9-2.8 1.9-.9 3.6-1.5 4.8-2.3.6-.4 1.1-.9 1.4-1.4.3-.5.6-1.2.8-1.8.2-.6.5-1.3.8-1.9.3-.6.7-1.1 1.2-1.5.9-.7 1.9-.9 2.5-.7.6.2.7.5.7.6-.1.1-.3 0-.7 0-.4 0-1 .3-1.5.9-.3.3-.5.7-.6 1.2-.2.5-.3 1.1-.4 1.8-.1.7-.3 1.5-.7 2.3-.4.8-1 1.6-1.8 2.3-.8.6-1.6 1.2-2.5 1.6-.8.4-1.7.9-2.6 1.4-1.8.9-3.7 1.9-5.7 3-4 2.1-8.3 4.6-12.8 7.3C1082.2 1087.4 1069.1 1098.4 1068.5 1097.7zM1167.4 1085.5c-.9-.1-1.1-5.5-2.1-12-1-6.5-2.5-11.7-1.7-12.1.4-.2 1.3 1 2.3 3 1 2.1 2 5.1 2.5 8.6.5 3.5.5 6.7.2 8.9C1168.4 1084.2 1167.8 1085.5 1167.4 1085.5zM1159.8 1089.9c.1.4-4.4 2.5-12 5.2-7.6 2.7-18.3 5.9-30.3 8.5-12 2.6-23.1 4.1-31.1 4.8-4 .4-7.5.3-9.7-.4-2.3-.6-3.3-1.5-3.2-1.6.1-.2 1.3.2 3.4.4 2.2.2 5.3 0 9.2-.7 7.9-1.3 18.8-3.1 30.7-5.7C1140.6 1095.3 1159.5 1089 1159.8 1089.9z"/><path stroke="#000" stroke-miterlimit="10" d="M1163.4 1070c.3.2-2.2 4-7.9 8.5-2.9 2.2-6.6 4.5-11 6.5-4.4 2-9.5 3.5-14.9 4.6-5.4 1-10.7 1.4-15.5 1.3-2.4 0-4.7-.1-6.8-.3-2.1-.2-4.1-.4-6-.9-1.9-.6-3.5-1.5-4.5-2.9-1-1.3-1.3-2.7-1.4-3.8-.1-1.1.3-2 .6-2.4.3-.5.6-.6.7-.6.2.1-.4 1.1 0 2.9.2.9.7 1.9 1.5 2.8.8.8 2.1 1.5 3.7 1.8 1.6.3 3.5.4 5.6.4 2.1.1 4.3.1 6.6 0 4.6-.1 9.7-.5 14.9-1.5 5.2-1 10.1-2.4 14.3-4.1 4.3-1.7 7.9-3.7 10.8-5.6C1159.9 1072.8 1163 1069.6 1163.4 1070zM1299.5 1089.5c.3.3-2.7 3.8-8.3 8.5-5.6 4.7-14.1 10.5-24.4 15.1-4 1.8-8 3.3-11.8 4.5-1.9.6-3.7 1.1-5.5 1.6-1.8.4-3.5.9-5.1 1.2-1.7.3-3.1.7-4.7.8-1.5.1-3 .1-4.3-.3-1.3-.3-2.5-.9-3.3-1.8-.8-.9-1.1-1.8-1.2-2.6l-.1-.7.6 0c1.6 0 2.4.2 2.4.4 0 .2-.8.5-2.3.8l.5-.7c.2.6.6 1.2 1.2 1.7.6.5 1.5.8 2.6 1 1.1.2 2.3.1 3.7-.1 1.3-.2 2.8-.7 4.4-1.1 1.6-.4 3.2-.9 4.9-1.4 1.7-.6 3.5-1.1 5.3-1.8 3.7-1.3 7.5-2.8 11.4-4.6 10-4.5 18.4-9.8 24.3-14C1295.6 1092 1299.1 1089.2 1299.5 1089.5zM1228.6 629c.2.1-.4 1.9-2.3 4.7-1.9 2.8-5.4 6.4-10.5 9.7-5.1 3.3-11.7 6.2-19.4 8.3-7.7 2.1-16.5 3.3-25.7 2.8-9.2-.5-17.9-2.7-25.2-6.1-7.3-3.4-13.1-7.7-17.5-11.9-4.3-4.2-7.1-8.2-8.8-11.1-.4-.7-.8-1.4-1.1-1.9-.3-.6-.5-1.1-.7-1.5-.3-.8-.5-1.3-.4-1.3s.4.3.9 1c.3.3.6.8.9 1.3.4.5.8 1.1 1.3 1.7 2 2.6 5 6.3 9.3 10.1 4.4 3.8 10.1 7.8 17.1 10.9 7 3.1 15.3 5.1 24.1 5.6 8.8.5 17.3-.6 24.7-2.5 7.5-1.9 14-4.4 19-7.4 5-2.9 8.5-6.1 10.7-8.5C1227.4 630.5 1228.4 628.9 1228.6 629z"/><path stroke="#000" stroke-miterlimit="10" d="M1222.6 618.6c.3.3-2.2 3.2-7 6.9-4.8 3.7-12 8.2-20.7 11.4-4.4 1.6-8.6 2.8-12.6 3.6-4 .7-7.8.8-10.9.1-3.1-.7-5.4-2-6.7-3.3-.3-.3-.6-.6-.8-.9-.2-.3-.4-.5-.5-.7-.2-.4-.3-.6-.2-.7.1-.1.3 0 .7.3.2.1.4.3.7.5.3.2.6.4.9.6 1.3.8 3.5 1.7 6.3 2 2.8.3 6.2.1 10-.8 3.7-.9 7.9-2.2 12-3.7 8.4-3.2 15.6-7.1 20.6-10.3C1219.3 620.4 1222.3 618.2 1222.6 618.6zM1097 452.7c-.1-.1.3-.4.9-.9.6-.5 1.6-1.1 2.8-2 2.4-1.7 5.7-4.4 9.5-8.1 3.8-3.7 7.9-8.4 12.3-13.9 4.5-5.4 9.1-11.6 14.7-17.7 5.6-6.1 11.6-11.2 17.7-15.1 3.1-1.9 6.2-3.4 9.2-4.6.8-.3 1.5-.5 2.3-.8.4-.1.7-.2 1.1-.4.4-.1.7-.2 1.1-.3.7-.2 1.4-.4 2.1-.5.7-.1 1.4-.2 2.1-.3 2.7-.4 5.2-.4 7.4-.3 2.2.1 4.1.5 5.5 1.2 1.5.7 2.4 1.6 2.8 2.3.4.7.5 1.2.4 1.2-.2.2-1-1.5-3.7-2.3-1.3-.4-3.1-.7-5.1-.6-2.1.1-4.4.2-6.9.8-.6.1-1.3.3-1.9.4-.6.2-1.3.4-2 .6-.3.1-.7.2-1 .3-.3.1-.7.3-1 .4-.7.3-1.4.5-2.1.8-2.8 1.2-5.7 2.7-8.6 4.6-5.8 3.8-11.5 8.8-16.9 14.7-5.4 5.9-10.2 12-14.8 17.4-4.6 5.4-9 10.1-13.1 13.6-4 3.6-7.7 6-10.4 7.5-1.3.8-2.4 1.2-3.1 1.5C1097.5 452.7 1097.1 452.8 1097 452.7zM1096.8 447.8c-.8.5-11.4-17-29-34.7-4.4-4.5-8.8-8.4-12.8-12.1-2-1.9-3.9-3.7-5.6-5.5-1.7-1.8-3.2-3.5-4.5-5.2-2.6-3.3-4.2-6.4-5.1-8.6-.5-1.1-.7-2-.8-2.6-.1-.6-.2-.9-.1-1 .5-.2 2.3 4.6 7.7 10.6 2.7 3 6.2 6.3 10.3 9.9 4.1 3.5 8.7 7.5 13.1 12.1 8.9 9 15.9 18.2 20.4 25.2C1095 443 1097.2 447.6 1096.8 447.8zM1037.8 429.2c-.8.4-5.7-7.3-11.6-16.9-5.9-9.6-10.6-17.5-9.9-18 .7-.5 6.7 6.6 12.7 16.3C1034.9 420.3 1038.5 428.8 1037.8 429.2zM1029.7 464.4c-.1.4-3.8.3-9.9-1.2-1.5-.4-3.1-.9-4.9-1.5-1.7-.6-3.5-1.4-5.4-2.2-1.9-.8-3.8-1.7-5.9-2.6-2-1-4.2-1.9-6.3-3.6l1-1.2-.6.7-.3.3-.2.2c0 0 0 0 0 0l0 0 0 0c0 0 0 0 0 0l-.1-.1-.2-.1-.4-.3-.7-.5c-.5-.3-1-.6-1.6-.9-1.6-.9-3.3-1.6-4.9-1.9-.2 0-.5-.1-.7.1-.1.1 0 .2 0 .3 0 .2 0 .1.2.6 1.1 3.2 2.9 5.8 5 7.7l-1.6 2.1c-2.3-1.6-3.7-3.9-4.2-6-.6-2.1-.6-4-.3-5.5.3-1.5.9-2.6 1.3-3.2.5-.6.8-.9.9-.8.3.2-.6 1.6-.7 4.2 0 1.3.1 2.9.8 4.6.7 1.7 1.9 3.4 3.7 4.5l-1.6 2.1c-2.5-2.1-4.8-5-6.2-8.7-.1-.3-.4-1.3-.6-2-.1-.8 0-1.5.3-2.1.4-.6 1-1.1 1.7-1.2.7-.2 1.6 0 2.4 0 2.2.4 4.2 1.2 6.1 2.2.6.3 1.2.7 1.8 1.1.3.2.6.4.8.6l.4.3.2.2.1.1.1.1.2.1-.1-.1c1.6 1.3 3.7 2.3 5.6 3.3 2 1 3.9 1.9 5.7 2.8 1.8.9 3.6 1.7 5.2 2.4 1.6.7 3.1 1.3 4.5 1.8C1026.2 463.1 1029.8 463.9 1029.7 464.4z"/><path stroke="#000" stroke-miterlimit="10" d="M1044.7,448.9c0,0.2-0.7,0.6-2.3,1c-1.6,0.3-3.9,0.4-6.7,0c-2.8-0.4-6-1.4-9.5-2.5c-3.4-1.1-7.2-2.1-11.2-3
					c-4-0.9-7.9-1.5-11.5-2c-1.8-0.2-3.3-0.4-4.5,0c-1.1,0.3-1.8,1.2-2.1,2.2c-0.6,2.2,0.5,4.2,1.2,5.5c0.7,1.3,1.1,2.1,0.9,2.3
					c-0.2,0.1-0.9-0.4-2-1.5c-0.5-0.6-1.2-1.4-1.7-2.5c-0.5-1.1-0.9-2.5-0.7-4.2c0.1-0.8,0.4-1.7,1-2.5c0.6-0.8,1.5-1.5,2.4-1.8
					c1.9-0.7,3.9-0.6,5.7-0.4c3.7,0.3,7.7,0.9,11.8,1.8c4.2,0.9,8,2.1,11.5,3.4c3.4,1.3,6.4,2.4,9,3.1c2.6,0.7,4.7,0.9,6.2,1
					C1043.8,448.7,1044.7,448.7,1044.7,448.9z"/><path stroke="#000" stroke-miterlimit="10" d="M1070.1 446.2c-.3.4-3.6-1.6-9.1-4.4-5.5-2.9-13.2-6.6-22.1-9.6-2.2-.7-4.3-1.2-6.2-1.2-1 0-1.8.2-2.7.6-.8.3-1.6.8-2.2 1.4-1.2 1.2-1.7 2.6-1.4 4 .3 1.4 1.2 2.8 2.1 3.9 1.9 2.3 3.9 3.8 5.2 4.9 1.4 1 2.2 1.6 2.1 1.8-.1.2-1.1 0-2.7-.7-1.6-.8-3.9-2.1-6.3-4.4-1.2-1.2-2.4-2.7-3-4.8-.3-1.1-.3-2.3 0-3.5.3-1.2 1-2.3 1.9-3.2.9-.9 1.9-1.6 3.1-2.1 1.2-.5 2.5-.8 3.8-.9 2.6-.1 5.1.5 7.4 1.2 9.2 3.2 16.9 7.3 22.2 10.7C1067.4 443.2 1070.3 445.8 1070.1 446.2zM1063.7 483.4c-.1.5-4 .3-10.4-.1-6.4-.4-15.3-1-25.1-2.9-4.9-1-9.5-2.3-13.5-3.8-4-1.5-7.6-3.3-10.3-5.1-5.6-3.5-8.2-6.7-7.9-7 .3-.4 3.4 2.1 9.1 5 2.8 1.4 6.3 2.9 10.2 4.2 3.9 1.3 8.4 2.5 13.1 3.4 9.5 1.9 18.3 2.8 24.7 3.8C1059.9 482 1063.8 483 1063.7 483.4zM1000.7 380.6c-.1.4-6.5-.2-16.6-2.9-5-1.4-10.9-3.3-17.3-5.9-1.6-.6-3.2-1.4-4.8-2.1-.8-.3-1.5-.5-2-.5-.5 0-.8.2-1.2.6-.3.4-.6 1-.6 1.6 0 .6.2 1.3.5 2 .7 1.4 1.9 2.9 3.1 4.3 5.1 5.6 11.7 9.1 17.9 11.2 6.3 2.1 12.4 2.9 17.5 3.3 2.6.2 4.9.3 6.9.5 2.1.1 3.9.4 5.3.8 2.9.8 4.2 1.9 4.1 2-.1.2-1.6-.5-4.4-.8-1.4-.2-3.1-.2-5.1-.2-2 0-4.4.1-7 0-5.2-.2-11.5-.7-18.2-2.8-3.4-1-6.8-2.5-10.1-4.4-3.3-1.9-6.5-4.4-9.3-7.5-.7-.8-1.3-1.6-2-2.4-.6-.8-1.2-1.7-1.7-2.8-.5-1-.8-2.2-.8-3.5.1-1.3.5-2.5 1.3-3.5.4-.5 1-1 1.6-1.3.6-.3 1.4-.4 2-.4 1.3 0 2.4.4 3.2.8 1.7.8 3.2 1.5 4.8 2.2 6.2 2.7 11.9 4.8 16.8 6.4C994.5 378.7 1000.8 380.1 1000.7 380.6zM1009.2 362.9c.1.2-.7.7-2.3 1.1-1.6.4-4 .7-6.9.4-2.9-.2-6.3-1-9.9-2.2-3.6-1.2-7.3-3-11.2-4.6-1.9-.8-3.8-1.6-5.7-2.2-1.8-.7-3.4-.9-4.4-.3-1.1.5-1.8 1.9-2 3.2-.1.7-.1 1.3-.1 2 .1.6.3 1.2.5 1.8 1 2.3 2.7 3.8 3.8 5 1.1 1.1 1.7 1.8 1.5 2-.1.2-1-.1-2.3-1-.7-.4-1.5-1-2.4-1.8-.9-.8-1.8-1.8-2.6-3.1-.4-.7-.8-1.5-.9-2.4-.2-.9-.3-1.8-.2-2.8.1-1 .4-2 .9-2.9.5-1 1.3-1.9 2.4-2.5 1.1-.6 2.4-.9 3.6-.8 1.2.1 2.3.4 3.3.7 2 .6 4 1.4 6 2.3 4 1.7 7.6 3.5 11 4.8 3.4 1.4 6.5 2.3 9.1 2.8C1005.7 363.1 1009.1 362.4 1009.2 362.9z"/><path stroke="#000" stroke-miterlimit="10" d="M1031.2 372.3c-.2.1-.7-.8-1.3-2.4-.7-1.5-1.6-3.8-3.2-6.2-1.6-2.4-4.3-4.5-7.8-6.1-1.7-.8-3.7-1.6-5.7-2.5-2-.8-4.1-1.7-6.3-2.6-2.1-.9-4.2-1.8-6.3-2.7-1-.4-2-.9-3-1.3-1-.4-1.8-.8-2.6-.9-.8-.2-1.3-.1-1.7.2-.4.2-.6.6-.6 1.3 0 .6.1 1.4.4 2 .2.7.6 1.4.9 2 1.4 2.6 2.9 4.4 4 5.7 1.1 1.3 1.8 1.9 1.6 2.1-.1.2-1-.2-2.5-1.2-1.4-1-3.4-2.8-5.1-5.4-.8-1.3-1.9-2.9-2-5.2 0-.6 0-1.2.3-1.9.2-.6.7-1.3 1.3-1.7.6-.5 1.3-.8 2-.9.7-.1 1.4-.1 2 0 1.2.2 2.3.6 3.3 1 1 .4 2 .8 3 1.2 2 .8 4.1 1.7 6.3 2.6 2.1.9 4.2 1.8 6.3 2.7 2 .9 4 1.7 5.8 2.7 1.8 1 3.6 2.1 5 3.4 1.4 1.3 2.6 2.7 3.4 4.2 1.6 2.9 2.1 5.4 2.4 7.1C1031.4 371.3 1031.4 372.2 1031.2 372.3zM1000.6 377c-.2.4-2.4-.1-5.8-1.2-3.4-1.2-8.1-2.8-13.1-5.3-5-2.4-9.3-5.5-11.8-8.3-2.5-2.8-3.4-5-3.1-5.2.4-.3 1.9 1.4 4.6 3.5 2.7 2.2 6.8 4.7 11.6 7.1 4.8 2.4 9.4 4.4 12.6 6.1C998.9 375.4 1000.8 376.6 1000.6 377zM1029.8 454.2c-.1.4-1.8.6-4.7.3-2.8-.3-6.7-1.3-10.7-3-4-1.8-7.3-4-9.4-5.8-2.2-1.8-3.2-3.3-2.9-3.6.6-.7 6.2 3.2 13.7 6.4C1023.3 451.8 1029.9 453.3 1029.8 454.2z"/><ellipse cx="1125.4" cy="488.3" stroke="#000" stroke-miterlimit="10" rx="5.4" ry="1.6" transform="rotate(-23.35 1125.306 488.301)"/><path stroke="#000" stroke-miterlimit="10" d="M1229.8 393.8c.3.2-.9 3.4-4.4 7.5-3.5 4.1-9.4 9.1-17.5 11.6-2 .6-4.2.9-6.3.8-2.1-.1-4.2-.6-5.9-1.6-1.7-1-3.1-2.5-4-4-.9-1.5-1.3-3.1-1.4-4.5-.3-2.9.6-5.2 1.4-6.5.9-1.3 1.7-1.8 1.8-1.6.2.2-.2.9-.7 2.2-.4 1.3-.8 3.3-.3 5.6.3 1.1.7 2.4 1.4 3.5.8 1.1 1.8 2.1 3.1 2.7 2.6 1.4 6.2 1.3 9.8.3 1.8-.5 3.5-1.2 5.1-2 1.6-.8 3.2-1.7 4.6-2.6 2.8-1.8 5.2-3.7 7-5.5C1227.5 396.2 1229.3 393.6 1229.8 393.8zM843.5 289.7c-.2 0-.6-2-1.1-5.8-.5-3.7-1-9.2-1.6-15.9-1.1-13.4-2.3-32-2.8-52.6-.6-20.6-.5-39.2-.1-52.6.2-6.7.4-12.2.7-15.9.3-3.8.5-5.8.7-5.8.5 0 .7 8.3.9 21.8.2 13.5.5 32 1 52.5.6 20.5 1.3 39.1 1.9 52.5C843.7 281.3 843.9 289.6 843.5 289.7zM1060.3 134.8c0 .1-.8 0-2.2-.2-.7-.1-1.6-.3-2.6-.5-.5-.1-1.1-.2-1.7-.3-.6-.1-1.2-.2-1.9-.3-1.4-.2-2.9-.5-4.5-.8-1.7-.2-3.5-.4-5.4-.7-3.9-.5-8.3-.8-13.2-1.1-9.8-.5-21.6-.2-34.6 1-13 1.1-27.2 3.1-42.2 5.1-15 2-29.3 3.8-42.5 4.6-13.1.8-25.1.7-35-.4-5-.5-9.4-1.2-13.3-1.9-1.9-.4-3.7-.8-5.4-1.1-1.6-.4-3.1-.8-4.5-1.2-.7-.2-1.3-.4-1.9-.5-.6-.2-1.1-.4-1.6-.6-1-.4-1.9-.7-2.6-.9-1.4-.5-2.1-.8-2-.9 0-.1.8 0 2.2.3.7.2 1.6.4 2.6.6.5.1 1.1.3 1.7.4.6.1 1.2.2 1.9.4 1.4.3 2.9.6 4.5.9 1.7.3 3.5.6 5.4.9 3.9.6 8.3 1.1 13.2 1.4 9.8.8 21.6.6 34.6-.3 13-1 27.3-2.8 42.2-4.9 15-2 29.3-3.9 42.4-4.9 13.1-1 25-1.1 35-.3 5 .4 9.5.9 13.4 1.6 2 .3 3.8.6 5.4 1 1.7.4 3.2.7 4.5 1 .7.2 1.3.3 1.9.5.6.2 1.1.3 1.7.5 1 .3 1.9.6 2.6.8C1059.6 134.4 1060.4 134.7 1060.3 134.8zM1064.1 253.2c-.4 0-1.2-6.6-2-17.4-.8-10.8-1.5-25.6-1.7-42.1-.2-16.5.1-31.3.6-42.1.5-10.8 1.1-17.4 1.6-17.4.5 0 .6 6.7.7 17.4.1 10.8.2 25.6.3 42 .3 16.4.5 31.3.7 42C1064.5 246.5 1064.5 253.1 1064.1 253.2zM1033.1 282.2c0 .2-2.4.8-6.8 1.5-2.2.4-4.9.8-8.1 1.3-3.2.5-6.8 1-10.7 1.5-15.9 2.1-38 4.4-62.5 5.8-24.5 1.5-46.7 1.8-62.7 1.7-4-.1-7.6-.1-10.8-.2-3.2-.1-6.1-.5-8.3-1.3-2.2-.8-3.7-2.1-4.4-3.1-.7-1-.8-1.7-.8-1.7.1-.1.5.5 1.3 1.3.8.8 2.2 1.7 4.3 2.3 2.1.6 4.7.8 7.9.7 3.2-.1 6.8-.2 10.8-.3 16-.4 38.1-1.2 62.5-2.6 24.4-1.4 46.5-3.4 62.4-4.9 8-.7 14.4-1.3 18.9-1.7C1030.5 282.1 1033 282 1033.1 282.2zM1059.2 263.5c.1 0 .2.2.4.7.1.2.1.5.2.8.1.3.2.7.3 1.1.5 1.7 1.4 4 3.2 6.5 1.7 2.5 4.3 5.3 7.3 8.1.8.7 1.6 1.4 2.4 2.2.4.4.8.7 1.3 1.2.5.5 1 1.1 1.2 2 .3.9.3 1.9-.1 2.8-.4.9-.9 1.5-1.5 2-1.2 1-2.5 1.5-3.9 1.9-5 1.2-9.9 1.4-14.2.8-4.4-.6-8.2-1.7-11.1-3.1-3-1.4-5.2-2.8-6.7-4-1.4-1.2-2.1-1.9-1.9-2.1.3-.4 3.6 1.9 9.5 4 2.9 1 6.5 1.9 10.6 2.3 4.1.4 8.6.1 13.1-1 1-.3 2-.7 2.6-1.2.3-.3.5-.5.6-.7.1-.2.1-.4 0-.6-.1-.5-.8-1.2-1.6-2-.8-.8-1.6-1.5-2.3-2.3-3-3.1-5.5-6.1-7.2-9-1.7-2.9-2.4-5.6-2.5-7.5 0-.5 0-.9 0-1.2 0-.4.1-.7.1-.9C1059 263.8 1059.1 263.5 1059.2 263.5z"/><polygon fill="none" stroke="#000" stroke-miterlimit="10" stroke-width="2" points="907 191 937.9 186.7 951.9 158.9 965.5 187 996.3 191.7 973.8 213.3 978.9 244.1 951.4 229.3 923.7 243.6 929.2 212.9" opacity=".4"/><path stroke="#000" stroke-miterlimit="10" d="M1093.6 502.1c-.7-.6 2.4-4.8 4.6-10.6 2.3-5.8 2.8-11 3.7-11 .4 0 .9 1.3.9 3.6.1 2.2-.4 5.4-1.6 8.6-1.2 3.2-3 5.8-4.6 7.4C1095.2 501.7 1093.9 502.4 1093.6 502.1zM1066.2 410.1c.3.3-.4 1.8-2.1 3.9-1.7 2.1-4.4 4.7-7.8 6.9-3.4 2.3-6.9 3.7-9.5 4.4-2.6.7-4.3.8-4.4.3-.3-.9 5.7-3.2 12.1-7.5C1061 414 1065.5 409.5 1066.2 410.1zM930.9 214.6c-.7.6-6.5-4.4-13.5-10.8-6.9-6.4-12.4-11.9-11.8-12.6.6-.7 7 3.7 14 10.2C926.7 207.9 931.6 214 930.9 214.6zM924.2 246.5c-.9 0-1.3-7.4 0-16.3 1.3-8.9 3.8-15.8 4.6-15.6.9.2-.2 7.4-1.4 16.1C926.1 239.4 925.1 246.5 924.2 246.5z"/><path stroke="#000" stroke-miterlimit="10" d="M950.4,229.1c0.5,0.8-5.2,5.1-12.6,9.7c-3.7,2.3-7.2,4.2-9.7,5.4c-1.3,0.6-2.4,1.1-3.1,1.3
					c-0.2,0.1-0.3,0.1-0.4,0c-0.1-0.1-0.2-0.1-0.2-0.1c-0.2,0.1-0.1,0.1-0.1,0c0-0.1,0-0.1,0-0.1c0,0,0.1,0.1,0.1,0.1c0,0,0,0,0,0
					c0,0,0-0.1,0.1-0.1c0,0,0,0,0.1,0c0,0,0.1,0.1,0.1,0.2c0,0.2-0.1,0.3-0.4,0.4c-0.1,0-0.2,0-0.3-0.1c0,0-0.1-0.1-0.1-0.1
					c0,0,0,0,0-0.1l0,0c-0.1-0.2,0-0.4,0.1-0.5c0.1-0.3,0.4-0.5,0.5-0.6c0.6-0.6,1.5-1.3,2.6-2.2c2.3-1.7,5.5-4,9.2-6.3
					C943.5,231.4,949.9,228.3,950.4,229.1z"/><path stroke="#000" stroke-miterlimit="10" d="M980.2,244.1c-0.4,0.8-7.7-1.7-16.4-5.7c-8.7-3.9-15.5-7.9-15-8.7c0.4-0.8,7.7,1.8,16.4,5.8
					C973.9,239.4,980.6,243.2,980.2,244.1z"/><path stroke="#000" stroke-miterlimit="10" d="M978.9 243.7c-.9 0-2-6.7-3.3-15-1.3-8.3-2.5-15-1.6-15.3.8-.2 3.4 6.3 4.8 14.8C980.2 236.6 979.8 243.6 978.9 243.7zM996.7 189.3c.7.5-3.2 7-9.7 13.6-6.5 6.6-12.9 10.7-13.4 10-.6-.7 4.8-5.8 11.1-12.2C991 194.2 996 188.8 996.7 189.3zM939.4 187.4c0 .5-1.9.9-5 1.4-3.1.5-7.4.9-12 1.4-4.7.5-8.9 1-12 1.4-3.1.4-5 .5-5.1.1-.1-.4 1.6-1.4 4.7-2.3 3-1 7.3-1.9 12.1-2.4 4.8-.5 9.1-.6 12.3-.4C937.4 186.7 939.4 187 939.4 187.4z"/><path stroke="#000" stroke-miterlimit="10" d="M951.2,159.4c0.8,0.5-2.6,6.6-6.4,14.3c-3.8,7.6-6.7,14-7.5,13.7c-0.8-0.3,0.7-7.3,4.6-15.2
					C945.8,164.3,950.5,158.9,951.2,159.4z"/><path stroke="#000" stroke-miterlimit="10" d="M965.6,188.6c-0.9,0.3-3.7-6.3-7.6-14.1c-3.9-7.8-7.4-14.1-6.7-14.6c0.7-0.5,5.6,5,9.6,13.1
					C965,181.1,966.5,188.4,965.6,188.6z"/><path stroke="#000" stroke-miterlimit="10" d="M994,190.4c-0.2,0.9-6.6-0.2-14.5-0.7c-7.9-0.6-14.4-0.4-14.5-1.3c-0.1-0.9,6.5-2.5,14.7-1.9
					C987.9,187,994.2,189.6,994,190.4z"/><ellipse cx="984" cy="157.3" stroke="#000" stroke-miterlimit="10" rx="8.7" ry="1.6" transform="rotate(-47.943 984.03 157.308)"/><path stroke="#000" stroke-miterlimit="10" d="M1009.1,159.5c0.5,0.7-2.5,3.9-7.3,6.4c-4.8,2.5-9.2,3.2-9.4,2.4c-0.3-0.9,3.4-2.9,7.9-5.2
					C1004.8,160.7,1008.6,158.8,1009.1,159.5z"/><ellipse cx="1071.3" cy="165.7" stroke="#000" stroke-miterlimit="10" rx="20.3" ry="1.6" transform="matrix(.0796 .9968 -.9968 .0796 1151.164 -915.385)"/><path stroke="#000" stroke-miterlimit="10" d="M1087.3,698c-0.4,0-0.6-4.8-0.1-12.5c0.3-3.9,0.8-8.4,1.5-13.5c0.8-5.1,1.8-10.6,3.1-16.4
					c1.3-5.8,2.8-11.2,4.3-16.1c1.5-4.9,3.1-9.2,4.5-12.8c2.9-7.2,5.1-11.4,5.5-11.3c0.9,0.4-6,18.1-11.2,40.9
					C1089.7,679.1,1088.3,698.1,1087.3,698z"/><ellipse cx="1256.8" cy="803.6" stroke="#000" stroke-miterlimit="10" rx="17.3" ry="1.6" transform="rotate(85.518 1256.753 803.573) scale(.99996)"/><path stroke="#000" stroke-miterlimit="10" d="M1101.6 1060.5c-.5-.7 3.1-4.4 8.7-7.2 5.6-2.8 10.8-3.5 11-2.6.3.9-4.2 2.9-9.5 5.6C1106.4 1058.9 1102.1 1061.3 1101.6 1060.5zM1036.6 354.6c-.5.2-1.6-1.7-3.8-4.3-.3-.3-.6-.7-.9-1-.3-.4-.7-.7-1-1.1-.7-.7-1.5-1.5-2.3-2.2-1.7-1.5-3.7-3-5.9-4.3-2.2-1.3-4.5-2.4-6.6-3.2-1.1-.4-2.1-.8-3-1-.5-.1-.9-.3-1.4-.4-.5-.1-.9-.2-1.3-.3-3.4-.7-5.6-.9-5.6-1.4 0-.4 2.2-1 5.9-.9.5 0 .9.1 1.4.1.5 0 1 .2 1.6.2 1.1.2 2.2.5 3.4.8 2.3.7 4.8 1.8 7.3 3.2 2.4 1.5 4.5 3.2 6.2 5 .8.9 1.6 1.7 2.3 2.6.3.4.7.8.9 1.3.3.4.5.8.8 1.2C1036.5 352.2 1036.9 354.5 1036.6 354.6zM1122.9 195.5c.8-.4 3.5 3.7 5.4 9.4 1.9 5.6 2.2 10.5 1.3 10.7-.9.2-2.6-4.2-4.4-9.7C1123.4 200.4 1122.1 195.9 1122.9 195.5zM1109.8 219.5c.1-.4.9-.7 2.2-.5 1.3.1 3 .7 4.7 1.8 1.7 1.1 2.9 2.4 3.5 3.6.7 1.1.8 2 .4 2.3-.8.5-2.9-1.3-5.8-3.1C1112.2 221.7 1109.6 220.4 1109.8 219.5zM1104.8 245.6c-.6-.7 1.2-3.1 4.5-4.6 3.3-1.5 6.3-1.3 6.4-.5.2.9-2.2 2.1-5.1 3.4C1107.9 245.2 1105.4 246.3 1104.8 245.6z"/></g></svg>